<svg width="244" height="64" viewBox="0 0 244 64" fill="none" xmlns="http://www.w3.org/2000/svg">
<g filter="url(#filter0_dd_1_700)">
<rect x="5" y="3" width="234" height="54" rx="27" fill="white"/>
<path d="M38.4288 29.9999C36.0622 29.9999 34.1431 27.2237 34.1431 24.8571V23.9999C34.1431 21.6334 36.0622 19.7142 38.4288 19.7142C40.7954 19.7142 42.7145 21.6334 42.7145 23.9999V24.8571C42.7145 27.2237 40.7954 29.9999 38.4288 29.9999Z" fill="#FF568B"/>
<path d="M41.0001 35.1428C41.0001 33.1208 42.7144 32.5714 42.7144 32.5714C42.7144 32.5714 40.9864 31.7142 38.4286 31.7142C36.0081 31.7142 33.8609 32.2611 32.4509 32.7368C31.4086 33.0891 30.7144 34.0705 30.7144 35.1702V38.5714H41.0001V35.1428Z" fill="#FF568B"/>
<path d="M50.4286 34.2857H49.5715V32.5714C49.5715 31.1537 48.4178 30 47.0001 30C45.5824 30 44.4286 31.1537 44.4286 32.5714V34.2857H43.5715C43.0984 34.2857 42.7144 34.6697 42.7144 35.1429V39.4286C42.7144 39.9017 43.0984 40.2857 43.5715 40.2857H50.4286C50.9018 40.2857 51.2858 39.9017 51.2858 39.4286V35.1429C51.2858 34.6697 50.9018 34.2857 50.4286 34.2857ZM46.1429 32.5714C46.1429 32.0991 46.5278 31.7143 47.0001 31.7143C47.4724 31.7143 47.8572 32.0991 47.8572 32.5714V34.2857H46.1429V32.5714Z" fill="#FF568B"/>
<path d="M71.8011 27.3636C71.7415 26.8598 71.4995 26.4688 71.0753 26.1903C70.651 25.9119 70.1307 25.7727 69.5142 25.7727C69.0634 25.7727 68.669 25.8456 68.331 25.9915C67.9962 26.1373 67.7344 26.3378 67.5455 26.593C67.3598 26.8482 67.267 27.1383 67.267 27.4631C67.267 27.7348 67.3317 27.9685 67.4609 28.1641C67.5935 28.3563 67.7625 28.517 67.968 28.6463C68.1735 28.7723 68.389 28.8767 68.6143 28.9595C68.8397 29.0391 69.0469 29.1037 69.2358 29.1534L70.2699 29.4318C70.535 29.5014 70.83 29.5975 71.1548 29.7202C71.483 29.8428 71.7962 30.0102 72.0945 30.2223C72.3961 30.4311 72.6446 30.6996 72.8402 31.0277C73.0357 31.3558 73.1335 31.7585 73.1335 32.2358C73.1335 32.786 72.9893 33.2831 72.701 33.7273C72.416 34.1714 71.9983 34.5244 71.4482 34.7862C70.9013 35.0481 70.2367 35.179 69.4545 35.179C68.7254 35.179 68.094 35.0613 67.5604 34.826C67.0301 34.5907 66.6125 34.2625 66.3075 33.8416C66.0059 33.4207 65.8352 32.9318 65.7955 32.375H67.0682C67.1013 32.7595 67.2306 33.0777 67.456 33.3295C67.6847 33.5781 67.973 33.7637 68.321 33.8864C68.6723 34.0057 69.0502 34.0653 69.4545 34.0653C69.9252 34.0653 70.3478 33.9891 70.7223 33.8366C71.0968 33.6809 71.3935 33.4654 71.6122 33.1903C71.831 32.9119 71.9403 32.5871 71.9403 32.2159C71.9403 31.8778 71.8459 31.6027 71.657 31.3906C71.468 31.1785 71.2195 31.0062 70.9112 30.8736C70.603 30.741 70.2699 30.625 69.9119 30.5256L68.6591 30.1676C67.8636 29.9389 67.2339 29.6125 66.7699 29.1882C66.3059 28.764 66.0739 28.2088 66.0739 27.5227C66.0739 26.9527 66.228 26.4555 66.5362 26.0312C66.8478 25.6037 67.2654 25.2723 67.7891 25.0369C68.3161 24.7983 68.9044 24.679 69.554 24.679C70.2102 24.679 70.7936 24.7966 71.304 25.032C71.8144 25.264 72.2188 25.5821 72.517 25.9865C72.8187 26.3909 72.9777 26.8499 72.9943 27.3636H71.8011ZM78.2033 35.1591C77.4675 35.1591 76.8328 34.9967 76.2992 34.6719C75.7689 34.3438 75.3596 33.8864 75.0712 33.2997C74.7862 32.7098 74.6436 32.0237 74.6436 31.2415C74.6436 30.4593 74.7862 29.7699 75.0712 29.1733C75.3596 28.5734 75.7606 28.1061 76.2743 27.7713C76.7914 27.4332 77.3946 27.2642 78.084 27.2642C78.4817 27.2642 78.8745 27.3305 79.2623 27.4631C79.65 27.5956 80.003 27.8111 80.3212 28.1094C80.6394 28.4044 80.8929 28.7955 81.0819 29.2827C81.2708 29.7699 81.3652 30.3698 81.3652 31.0824V31.5795L75.4789 31.5795V30.5653L80.1721 30.5653C80.1721 30.1345 80.0859 29.75 79.9135 29.4119C79.7445 29.0739 79.5025 28.8071 79.1877 28.6115C78.8761 28.416 78.5082 28.3182 78.084 28.3182C77.6167 28.3182 77.2123 28.4342 76.8709 28.6662C76.5328 28.8949 76.2727 29.1932 76.0904 29.5611C75.9081 29.929 75.8169 30.3234 75.8169 30.7443V31.4205C75.8169 31.9972 75.9164 32.486 76.1152 32.8871C76.3174 33.2848 76.5975 33.5881 76.9554 33.7969C77.3134 34.0024 77.7293 34.1051 78.2033 34.1051C78.5115 34.1051 78.79 34.062 79.0385 33.9759C79.2904 33.8864 79.5075 33.7538 79.6898 33.5781C79.8721 33.3991 80.013 33.1771 80.1124 32.9119L81.2459 33.2301C81.1266 33.6146 80.9261 33.9527 80.6444 34.2443C80.3626 34.5327 80.0146 34.758 79.6003 34.9205C79.186 35.0795 78.7203 35.1591 78.2033 35.1591ZM86.2523 35.1591C85.5364 35.1591 84.9199 34.9901 84.4029 34.652C83.8858 34.3139 83.4881 33.8482 83.2097 33.255C82.9313 32.6617 82.7921 31.9839 82.7921 31.2216C82.7921 30.446 82.9346 29.7616 83.2196 29.1683C83.508 28.5717 83.909 28.1061 84.4228 27.7713C84.9398 27.4332 85.543 27.2642 86.2324 27.2642C86.7694 27.2642 87.2533 27.3636 87.6841 27.5625C88.115 27.7614 88.468 28.0398 88.7431 28.3977C89.0182 28.7557 89.1889 29.1733 89.2551 29.6506H88.0819C87.9924 29.3026 87.7935 28.9943 87.4853 28.7259C87.1803 28.4541 86.7694 28.3182 86.2523 28.3182C85.7949 28.3182 85.3939 28.4375 85.0492 28.6761C84.7078 28.9115 84.441 29.2446 84.2488 29.6754C84.0598 30.103 83.9654 30.6051 83.9654 31.1818C83.9654 31.7718 84.0582 32.2855 84.2438 32.723C84.4327 33.1605 84.6979 33.5002 85.0392 33.7422C85.3839 33.9841 85.7883 34.1051 86.2523 34.1051C86.5572 34.1051 86.834 34.0521 87.0826 33.946C87.3311 33.84 87.5416 33.6875 87.714 33.4886C87.8863 33.2898 88.0089 33.0511 88.0819 32.7727H89.2551C89.1889 33.2235 89.0248 33.6295 88.763 33.9908C88.5044 34.3487 88.1614 34.6338 87.7338 34.8459C87.3096 35.0547 86.8158 35.1591 86.2523 35.1591ZM95.7828 31.8778V27.3636H96.9561V35H95.7828V33.7074H95.7033C95.5243 34.0952 95.2459 34.425 94.8681 34.6967C94.4902 34.9652 94.013 35.0994 93.4363 35.0994C92.959 35.0994 92.5347 34.995 92.1635 34.7862C91.7923 34.5741 91.5007 34.2559 91.2885 33.8317C91.0764 33.4041 90.9703 32.8655 90.9703 32.2159V27.3636H92.1436V32.1364C92.1436 32.6932 92.2994 33.1373 92.611 33.4688C92.9258 33.8002 93.3269 33.9659 93.8141 33.9659C94.1058 33.9659 94.4024 33.8913 94.704 33.7422C95.0089 33.593 95.2641 33.3643 95.4696 33.0561C95.6784 32.7479 95.7828 32.3551 95.7828 31.8778ZM99.1051 35V27.3636H100.239V28.517H100.318C100.457 28.1392 100.709 27.8326 101.074 27.5973C101.438 27.362 101.849 27.2443 102.307 27.2443C102.393 27.2443 102.501 27.246 102.63 27.2493C102.759 27.2526 102.857 27.2576 102.923 27.2642V28.4574C102.884 28.4474 102.792 28.4325 102.65 28.4126C102.511 28.3894 102.363 28.3778 102.207 28.3778C101.836 28.3778 101.505 28.4557 101.213 28.6115C100.925 28.764 100.696 28.9761 100.527 29.2479C100.361 29.5163 100.278 29.8229 100.278 30.1676V35H99.1051ZM107.283 35.1591C106.548 35.1591 105.913 34.9967 105.379 34.6719C104.849 34.3438 104.44 33.8864 104.151 33.2997C103.866 32.7098 103.724 32.0237 103.724 31.2415C103.724 30.4593 103.866 29.7699 104.151 29.1733C104.44 28.5734 104.841 28.1061 105.354 27.7713C105.871 27.4332 106.475 27.2642 107.164 27.2642C107.562 27.2642 107.955 27.3305 108.342 27.4631C108.73 27.5956 109.083 27.8111 109.401 28.1094C109.719 28.4044 109.973 28.7955 110.162 29.2827C110.351 29.7699 110.445 30.3698 110.445 31.0824V31.5795L104.559 31.5795V30.5653L109.252 30.5653C109.252 30.1345 109.166 29.75 108.994 29.4119C108.825 29.0739 108.583 28.8071 108.268 28.6115C107.956 28.416 107.588 28.3182 107.164 28.3182C106.697 28.3182 106.292 28.4342 105.951 28.6662C105.613 28.8949 105.353 29.1932 105.17 29.5611C104.988 29.929 104.897 30.3234 104.897 30.7443V31.4205C104.897 31.9972 104.996 32.486 105.195 32.8871C105.397 33.2848 105.678 33.5881 106.036 33.7969C106.393 34.0024 106.809 34.1051 107.283 34.1051C107.592 34.1051 107.87 34.062 108.119 33.9759C108.371 33.8864 108.588 33.7538 108.77 33.5781C108.952 33.3991 109.093 33.1771 109.192 32.9119L110.326 33.2301C110.207 33.6146 110.006 33.9527 109.724 34.2443C109.443 34.5327 109.095 34.758 108.68 34.9205C108.266 35.0795 107.8 35.1591 107.283 35.1591ZM118.415 35.179C117.931 35.179 117.492 35.0878 117.097 34.9055C116.703 34.7199 116.39 34.4531 116.158 34.1051C115.926 33.7538 115.81 33.3295 115.81 32.8324C115.81 32.3949 115.896 32.0402 116.068 31.7685C116.241 31.4934 116.471 31.2779 116.759 31.1222C117.048 30.9664 117.366 30.8504 117.714 30.7741C118.065 30.6946 118.418 30.6316 118.773 30.5852C119.237 30.5256 119.613 30.4808 119.901 30.451C120.193 30.4179 120.405 30.3632 120.538 30.2869C120.674 30.2107 120.741 30.0781 120.741 29.8892V29.8494C120.741 29.3589 120.607 28.9777 120.339 28.706C120.074 28.4342 119.671 28.2983 119.131 28.2983C118.571 28.2983 118.131 28.4209 117.813 28.6662C117.495 28.9115 117.271 29.1733 117.142 29.4517L116.028 29.054C116.227 28.59 116.492 28.2287 116.824 27.9702C117.159 27.7083 117.523 27.526 117.918 27.4233C118.315 27.3172 118.706 27.2642 119.091 27.2642C119.336 27.2642 119.618 27.294 119.936 27.3537C120.258 27.41 120.567 27.5277 120.866 27.7067C121.167 27.8857 121.418 28.1558 121.616 28.517C121.815 28.8783 121.915 29.3622 121.915 29.9688V35H120.741V33.9659H120.682C120.602 34.1316 120.47 34.3089 120.284 34.4979C120.098 34.6868 119.852 34.8475 119.543 34.9801C119.235 35.1127 118.859 35.179 118.415 35.179ZM118.594 34.125C119.058 34.125 119.449 34.0339 119.767 33.8516C120.089 33.6693 120.33 33.4339 120.493 33.1456C120.659 32.8572 120.741 32.554 120.741 32.2358V31.1619C120.692 31.2216 120.582 31.2763 120.413 31.326C120.248 31.3724 120.055 31.4138 119.837 31.4503C119.621 31.4834 119.411 31.5133 119.205 31.5398C119.003 31.563 118.839 31.5829 118.713 31.5994C118.408 31.6392 118.123 31.7038 117.858 31.7933C117.596 31.8795 117.384 32.0104 117.222 32.1861C117.063 32.3584 116.983 32.5937 116.983 32.892C116.983 33.2997 117.134 33.608 117.435 33.8168C117.74 34.0223 118.126 34.125 118.594 34.125ZM128.869 31.8778V27.3636H130.042V35H128.869V33.7074H128.789C128.61 34.0952 128.332 34.425 127.954 34.6967C127.576 34.9652 127.099 35.0994 126.522 35.0994C126.045 35.0994 125.621 34.995 125.249 34.7862C124.878 34.5741 124.587 34.2559 124.374 33.8317C124.162 33.4041 124.056 32.8655 124.056 32.2159V27.3636H125.23V32.1364C125.23 32.6932 125.385 33.1373 125.697 33.4688C126.012 33.8002 126.413 33.9659 126.9 33.9659C127.192 33.9659 127.488 33.8913 127.79 33.7422C128.095 33.593 128.35 33.3643 128.556 33.0561C128.764 32.7479 128.869 32.3551 128.869 31.8778ZM135.512 27.3636V28.358L131.555 28.358V27.3636L135.512 27.3636ZM132.708 25.5341H133.881V32.8125C133.881 33.1439 133.929 33.3925 134.026 33.5582C134.125 33.7206 134.251 33.83 134.403 33.8864C134.559 33.9394 134.723 33.9659 134.896 33.9659C135.025 33.9659 135.131 33.9593 135.214 33.946C135.297 33.9295 135.363 33.9162 135.413 33.9063L135.651 34.9602C135.572 34.9901 135.461 35.0199 135.318 35.0497C135.176 35.0829 134.995 35.0994 134.776 35.0994C134.445 35.0994 134.12 35.0282 133.802 34.8857C133.487 34.7431 133.225 34.526 133.016 34.2344C132.811 33.9427 132.708 33.5748 132.708 33.1307V25.5341ZM138.614 30.4063V35H137.441V24.8182H138.614V28.5568H138.714C138.893 28.1624 139.161 27.8492 139.519 27.6172C139.88 27.3819 140.361 27.2642 140.961 27.2642C141.481 27.2642 141.937 27.3686 142.328 27.5774C142.719 27.7829 143.022 28.0994 143.238 28.527C143.457 28.9512 143.566 29.4915 143.566 30.1477V35H142.393V30.2273C142.393 29.6207 142.235 29.1518 141.92 28.8203C141.609 28.4856 141.176 28.3182 140.623 28.3182C140.238 28.3182 139.894 28.3994 139.589 28.5618C139.287 28.7242 139.049 28.9612 138.873 29.2727C138.701 29.5843 138.614 29.9621 138.614 30.4063ZM148.914 35.1591C148.178 35.1591 147.544 34.9967 147.01 34.6719C146.48 34.3438 146.07 33.8864 145.782 33.2997C145.497 32.7098 145.355 32.0237 145.355 31.2415C145.355 30.4593 145.497 29.7699 145.782 29.1733C146.07 28.5734 146.472 28.1061 146.985 27.7713C147.502 27.4332 148.106 27.2642 148.795 27.2642C149.193 27.2642 149.585 27.3305 149.973 27.4631C150.361 27.5956 150.714 27.8111 151.032 28.1094C151.35 28.4044 151.604 28.7955 151.793 29.2827C151.982 29.7699 152.076 30.3698 152.076 31.0824V31.5795H146.19V30.5653H150.883C150.883 30.1345 150.797 29.75 150.624 29.4119C150.455 29.0739 150.213 28.8071 149.899 28.6115C149.587 28.416 149.219 28.3182 148.795 28.3182C148.328 28.3182 147.923 28.4342 147.582 28.6662C147.244 28.8949 146.984 29.1932 146.801 29.5611C146.619 29.929 146.528 30.3234 146.528 30.7443V31.4205C146.528 31.9972 146.627 32.486 146.826 32.8871C147.028 33.2848 147.308 33.5881 147.666 33.7969C148.024 34.0024 148.44 34.1051 148.914 34.1051C149.222 34.1051 149.501 34.062 149.749 33.9759C150.001 33.8864 150.218 33.7538 150.401 33.5781C150.583 33.3991 150.724 33.1771 150.823 32.9119L151.957 33.2301C151.838 33.6146 151.637 33.9527 151.355 34.2443C151.074 34.5327 150.726 34.758 150.311 34.9205C149.897 35.0795 149.431 35.1591 148.914 35.1591ZM155.034 30.4063V35H153.861V27.3636H154.994V28.5568H155.094C155.273 28.169 155.545 27.8575 155.909 27.6222C156.274 27.3835 156.744 27.2642 157.321 27.2642C157.838 27.2642 158.291 27.3703 158.678 27.5824C159.066 27.7912 159.368 28.1094 159.583 28.5369C159.799 28.9612 159.906 29.4981 159.906 30.1477V35L158.733 35V30.2273C158.733 29.6274 158.577 29.16 158.266 28.8253C157.954 28.4872 157.527 28.3182 156.983 28.3182C156.609 28.3182 156.274 28.3994 155.979 28.5618C155.687 28.7242 155.457 28.9612 155.288 29.2727C155.119 29.5843 155.034 29.9621 155.034 30.4063ZM165.371 27.3636V28.358L161.414 28.358V27.3636L165.371 27.3636ZM162.567 25.5341H163.741V32.8125C163.741 33.1439 163.789 33.3925 163.885 33.5582C163.984 33.7206 164.11 33.83 164.263 33.8864C164.419 33.9394 164.583 33.9659 164.755 33.9659C164.884 33.9659 164.99 33.9593 165.073 33.946C165.156 33.9295 165.222 33.9162 165.272 33.9063L165.511 34.9602C165.431 34.9901 165.32 35.0199 165.178 35.0497C165.035 35.0829 164.854 35.0994 164.636 35.0994C164.304 35.0994 163.979 35.0282 163.661 34.8857C163.346 34.7431 163.085 34.526 162.876 34.2344C162.67 33.9427 162.567 33.5748 162.567 33.1307V25.5341ZM167.136 35V27.3636H168.31V35H167.136ZM167.733 26.0909C167.504 26.0909 167.307 26.013 167.141 25.8572C166.979 25.7015 166.898 25.5142 166.898 25.2955C166.898 25.0767 166.979 24.8894 167.141 24.7337C167.307 24.5779 167.504 24.5 167.733 24.5C167.962 24.5 168.157 24.5779 168.32 24.7337C168.485 24.8894 168.568 25.0767 168.568 25.2955C168.568 25.5142 168.485 25.7015 168.32 25.8572C168.157 26.013 167.962 26.0909 167.733 26.0909ZM173.561 35.1591C172.845 35.1591 172.229 34.9901 171.711 34.652C171.194 34.3139 170.797 33.8482 170.518 33.255C170.24 32.6617 170.101 31.9839 170.101 31.2216C170.101 30.446 170.243 29.7616 170.528 29.1683C170.817 28.5717 171.218 28.1061 171.731 27.7713C172.248 27.4332 172.852 27.2642 173.541 27.2642C174.078 27.2642 174.562 27.3636 174.993 27.5625C175.424 27.7614 175.777 28.0398 176.052 28.3977C176.327 28.7557 176.497 29.1733 176.564 29.6506H175.39C175.301 29.3026 175.102 28.9943 174.794 28.7259C174.489 28.4541 174.078 28.3182 173.561 28.3182C173.104 28.3182 172.702 28.4375 172.358 28.6761C172.016 28.9115 171.75 29.2446 171.557 29.6754C171.368 30.103 171.274 30.6051 171.274 31.1818C171.274 31.7718 171.367 32.2855 171.552 32.723C171.741 33.1605 172.006 33.5002 172.348 33.7422C172.693 33.9841 173.097 34.1051 173.561 34.1051C173.866 34.1051 174.143 34.0521 174.391 33.946C174.64 33.84 174.85 33.6875 175.023 33.4886C175.195 33.2898 175.318 33.0511 175.39 32.7727H176.564C176.497 33.2235 176.333 33.6295 176.072 33.9908C175.813 34.3487 175.47 34.6338 175.042 34.8459C174.618 35.0547 174.124 35.1591 173.561 35.1591ZM180.526 35.179C180.042 35.179 179.603 35.0878 179.209 34.9055C178.814 34.7199 178.501 34.4531 178.269 34.1051C178.037 33.7538 177.921 33.3295 177.921 32.8324C177.921 32.3949 178.007 32.0402 178.18 31.7685C178.352 31.4934 178.582 31.2779 178.871 31.1222C179.159 30.9664 179.477 30.8504 179.825 30.7741C180.176 30.6946 180.529 30.6316 180.884 30.5852C181.348 30.5256 181.724 30.4808 182.013 30.451C182.304 30.4179 182.516 30.3632 182.649 30.2869C182.785 30.2107 182.853 30.0781 182.853 29.8892V29.8494C182.853 29.3589 182.719 28.9777 182.45 28.706C182.185 28.4342 181.782 28.2983 181.242 28.2983C180.682 28.2983 180.243 28.4209 179.925 28.6662C179.606 28.9115 179.383 29.1733 179.253 29.4517L178.14 29.054C178.339 28.59 178.604 28.2287 178.935 27.9702C179.27 27.7083 179.635 27.526 180.029 27.4233C180.427 27.3172 180.818 27.2642 181.202 27.2642C181.448 27.2642 181.729 27.294 182.047 27.3537C182.369 27.41 182.679 27.5277 182.977 27.7067C183.279 27.8857 183.529 28.1558 183.728 28.517C183.927 28.8783 184.026 29.3622 184.026 29.9688V35H182.853V33.9659H182.793C182.714 34.1316 182.581 34.3089 182.395 34.4979C182.21 34.6868 181.963 34.8475 181.655 34.9801C181.346 35.1127 180.97 35.179 180.526 35.179ZM180.705 34.125C181.169 34.125 181.56 34.0339 181.878 33.8516C182.2 33.6693 182.442 33.4339 182.604 33.1456C182.77 32.8572 182.853 32.554 182.853 32.2358V31.1619C182.803 31.2216 182.694 31.2763 182.525 31.326C182.359 31.3724 182.167 31.4138 181.948 31.4503C181.733 31.4834 181.522 31.5133 181.317 31.5398C181.114 31.563 180.95 31.5829 180.824 31.5994C180.519 31.6392 180.234 31.7038 179.969 31.7933C179.707 31.8795 179.495 32.0104 179.333 32.1861C179.174 32.3584 179.094 32.5937 179.094 32.892C179.094 33.2997 179.245 33.608 179.547 33.8168C179.852 34.0223 180.238 34.125 180.705 34.125ZM189.489 27.3636V28.358H185.531V27.3636H189.489ZM186.685 25.5341H187.858V32.8125C187.858 33.1439 187.906 33.3925 188.002 33.5582C188.102 33.7206 188.228 33.83 188.38 33.8864C188.536 33.9394 188.7 33.9659 188.872 33.9659C189.001 33.9659 189.107 33.9593 189.19 33.946C189.273 33.9295 189.339 33.9162 189.389 33.9063L189.628 34.9602C189.548 34.9901 189.437 35.0199 189.295 35.0497C189.152 35.0829 188.972 35.0994 188.753 35.0994C188.421 35.0994 188.097 35.0282 187.778 34.8857C187.464 34.7431 187.202 34.526 186.993 34.2344C186.787 33.9427 186.685 33.5748 186.685 33.1307V25.5341ZM191.254 35V27.3636L192.427 27.3636V35H191.254ZM191.85 26.0909C191.621 26.0909 191.424 26.013 191.259 25.8572C191.096 25.7015 191.015 25.5142 191.015 25.2955C191.015 25.0767 191.096 24.8894 191.259 24.7337C191.424 24.5779 191.621 24.5 191.85 24.5C192.079 24.5 192.274 24.5779 192.437 24.7337C192.603 24.8894 192.685 25.0767 192.685 25.2955C192.685 25.5142 192.603 25.7015 192.437 25.8572C192.274 26.013 192.079 26.0909 191.85 26.0909ZM197.678 35.1591C196.989 35.1591 196.384 34.995 195.863 34.6669C195.346 34.3388 194.942 33.8797 194.65 33.2898C194.362 32.6998 194.218 32.0104 194.218 31.2216C194.218 30.4261 194.362 29.7318 194.65 29.1385C194.942 28.5452 195.346 28.0845 195.863 27.7564C196.384 27.4283 196.989 27.2642 197.678 27.2642C198.367 27.2642 198.971 27.4283 199.488 27.7564C200.008 28.0845 200.412 28.5452 200.701 29.1385C200.992 29.7318 201.138 30.4261 201.138 31.2216C201.138 32.0104 200.992 32.6998 200.701 33.2898C200.412 33.8797 200.008 34.3388 199.488 34.6669C198.971 34.995 198.367 35.1591 197.678 35.1591ZM197.678 34.1051C198.202 34.1051 198.633 33.9709 198.971 33.7024C199.309 33.4339 199.559 33.081 199.721 32.6435C199.884 32.206 199.965 31.732 199.965 31.2216C199.965 30.7112 199.884 30.2356 199.721 29.7947C199.559 29.3539 199.309 28.9976 198.971 28.7259C198.633 28.4541 198.202 28.3182 197.678 28.3182C197.154 28.3182 196.724 28.4541 196.385 28.7259C196.047 28.9976 195.797 29.3539 195.635 29.7947C195.472 30.2356 195.391 30.7112 195.391 31.2216C195.391 31.732 195.472 32.206 195.635 32.6435C195.797 33.081 196.047 33.4339 196.385 33.7024C196.724 33.9709 197.154 34.1051 197.678 34.1051ZM204.103 30.4063V35H202.929V27.3636H204.063V28.5568H204.162C204.341 28.169 204.613 27.8575 204.978 27.6222C205.342 27.3835 205.813 27.2642 206.39 27.2642C206.907 27.2642 207.359 27.3703 207.747 27.5824C208.135 27.7912 208.436 28.1094 208.652 28.5369C208.867 28.9612 208.975 29.4981 208.975 30.1477V35H207.801V30.2273C207.801 29.6274 207.646 29.16 207.334 28.8253C207.023 28.4872 206.595 28.3182 206.051 28.3182C205.677 28.3182 205.342 28.3994 205.047 28.5618C204.756 28.7242 204.525 28.9612 204.356 29.2727C204.187 29.5843 204.103 29.9621 204.103 30.4063Z" fill="#171A1F"/>
</g>
<defs>
<filter id="filter0_dd_1_700" x="0" y="0" width="244" height="64" filterUnits="userSpaceOnUse" color-interpolation-filters="sRGB">
<feFlood flood-opacity="0" result="BackgroundImageFix"/>
<feColorMatrix in="SourceAlpha" type="matrix" values="0 0 0 0 0 0 0 0 0 0 0 0 0 0 0 0 0 0 127 0" result="hardAlpha"/>
<feOffset dy="2"/>
<feGaussianBlur stdDeviation="2.5"/>
<feColorMatrix type="matrix" values="0 0 0 0 0.0901961 0 0 0 0 0.101961 0 0 0 0 0.121569 0 0 0 0.17 0"/>
<feBlend mode="normal" in2="BackgroundImageFix" result="effect1_dropShadow_1_700"/>
<feColorMatrix in="SourceAlpha" type="matrix" values="0 0 0 0 0 0 0 0 0 0 0 0 0 0 0 0 0 0 127 0" result="hardAlpha"/>
<feOffset/>
<feGaussianBlur stdDeviation="1"/>
<feColorMatrix type="matrix" values="0 0 0 0 0.0901961 0 0 0 0 0.101961 0 0 0 0 0.121569 0 0 0 0.2 0"/>
<feBlend mode="normal" in2="effect1_dropShadow_1_700" result="effect2_dropShadow_1_700"/>
<feBlend mode="normal" in="SourceGraphic" in2="effect2_dropShadow_1_700" result="shape"/>
</filter>
</defs>
</svg>
