<svg width="246" height="195" viewBox="0 0 246 195" fill="none" xmlns="http://www.w3.org/2000/svg">
<path d="M7.71671 170.21V170.191H7.47395V170.172H7.26864V170.153H7.13797V170.135H6.98868V170.115H6.8766V170.097H6.76478V170.078H6.67129V170.058H6.55946V170.04H6.48457V170.022H6.40994V170.002H6.3167V169.983H6.24206V169.965H6.16742V169.945H6.11137V169.927H6.03674V169.909H5.9807V169.889H5.90605V169.87H5.85002V169.852H5.79398V169.832H5.73794V169.814H5.68191V169.795H5.62611V169.776H5.57006V169.757H5.51402V169.739H5.45798V169.719H5.42078V169.701H5.36475V169.682H5.3273V169.662H5.27126V169.644H5.23408V169.626H5.17802V169.606H5.14058V169.588H5.10339V169.569H5.04735V169.549H5.00991V169.531H4.97271V169.513H4.93526V169.493H4.89806V169.474H4.84204V169.456H4.80458V169.436H4.76739V169.418H4.72995V169.399H4.69275V169.38H4.6553V169.361H4.63671V169.343H4.59928V169.323H4.56208V169.305H4.52463V169.286H4.48743V169.267H4.44999V169.248H4.4128V169.23H4.39395V169.21H4.35675V169.192H4.31932V169.173H4.28212V169.153H4.26326V169.135H4.22608V169.117H4.18863V169.097H4.15144V169.078H4.13259V169.06H4.09539V169.04H4.0768V169.022H4.03936V169.004H4.02075V168.984H3.98332V168.965H3.94613V168.947H3.92728V168.927H3.89008V168.909H3.87123V168.89H3.83405V168.871H3.81544V168.852H3.7966V168.834H3.7594V168.814H3.7408V168.796H3.70336V168.777H3.68477V168.758H3.66591V168.739H3.62873V168.721H3.61012V168.701H3.57268V168.683H3.55409V168.664H3.53523V168.644H3.49804V168.626H3.47944V168.608H3.4606V168.588H3.44201V168.569H3.40481V168.551H3.38597V168.531H3.36736V168.513H3.32992V168.495H3.31133V168.475H3.29273V168.456H3.27413V168.438H3.25528V168.418H3.21808V168.4H3.19925V168.381H3.18064V168.362H3.16205V168.343H3.14346V168.325H3.1246V168.305H3.0874V168.287H3.06881V168.268H3.04997V168.248H3.03137V168.23H3.01277V168.212H2.99392V168.192H2.97532V168.174H2.95673V168.155H2.93813V168.135H2.91929V168.117H2.88209V168.099H2.86323V168.079H2.84464V168.06H2.82605V168.042H2.80744V168.022H2.78861V168.004H2.77001V167.985H2.75142V167.966H2.73256V167.947H2.71397V167.929H2.69536V167.909H2.67677V167.891H2.65792V167.872H2.63933V167.853H2.62074V167.834H2.60213V167.816H2.58329V167.796H2.56468V167.778H2.54609V167.739H2.52725V167.721H2.50866V167.703H2.49005V167.683H2.47146V167.665H2.4526V167.646H2.43401V167.626H2.41542V167.608H2.39657V167.59H2.37797V167.551H2.35937V167.533H2.34078V167.513H2.32194V167.495H2.30335V167.476H2.28474V167.457H2.26615V167.42H2.24729V167.4H2.2287V167.382H2.21009V167.363H2.19126V167.344H2.17266V167.307H2.15406V167.287H2.13546V167.269H2.11661V167.23H2.09802V167.212H2.07942V167.194H2.06057V167.174H2.04198V167.137H2.02339V167.117H2.00478V167.099H1.98594V167.061H1.96733V167.042H1.94874V167.004H1.93013V166.986H1.9113V166.967H1.8927V166.929H1.87411V166.911H1.85525V166.873H1.83666V166.854H1.81806V166.834H1.79946V166.798H1.78061V166.778H1.76202V166.741H1.74343V166.721H1.72457V166.685H1.70597V166.646H1.68738V166.628H1.66878V166.59H1.64994V166.571H1.63134V166.533H1.61274V166.515H1.59415V166.477H1.5753V166.439H1.5567V166.402H1.5381V166.382H1.51926V166.345H1.50066V166.307H1.48207V166.269H1.46347V166.251H1.44462V166.212H1.42602V166.176H1.40742V166.137H1.38858V166.099H1.36998V166.062H1.35139V166.024H1.33279V166.006H1.31394V165.968H1.29534V165.93H1.27674V165.893H1.25814V165.855H1.2393V165.816H1.22071V165.76H1.20211V165.723H1.18326V165.685H1.16466V165.647H1.14606V165.61H1.12746V165.553H1.10862V165.515H1.09003V165.477H1.07143V165.42H1.05258V165.384H1.03398V165.327H1.01538V165.289H0.996784V165.232H0.977944V165.176H0.959347V165.138H0.940749V165.081H0.922151V165.025H0.9033V164.968H0.884703V164.911H0.866105V164.855H0.847265V164.798H0.828668V164.742H0.81007V164.667H0.791473V164.61H0.77262V164.535H0.754023V164.479H0.735425V164.402H0.716585V164.309H0.697988V164.233H0.67939V164.158H0.660792V164.063H0.641953V163.97H0.623355V163.875H0.604757V163.762H0.585906V163.649H0.567309V163.497H0.548711V163.348H0.530114V163.14H0.511274V162.895H0.492676V7.43133H0.511274V7.18587H0.530114V6.97799H0.548711V6.84526H0.567309V6.695H0.585906V6.58228H0.604757V6.46958H0.623355V6.37442H0.641953V6.26173H0.660792V6.18659H0.67939V6.11145H0.697988V6.01628H0.716585V5.94116H0.735425V5.86602H0.754023V5.80841H0.77262V5.73329H0.791473V5.67818H0.81007V5.60306H0.828668V5.54545H0.847265V5.48783H0.866105V5.43275H0.884703V5.37512H0.9033V5.32004H0.922151V5.26242H0.940749V5.20483H0.959347V5.14973H0.977944V5.11216H0.996784V5.05455H1.01538V5.017H1.03398V4.96188H1.05258V4.92432H1.07143V4.86673H1.09003V4.82915H1.10862V4.77157H1.12746V4.73398H1.14606V4.69643H1.16466V4.65886H1.18326V4.60375H1.20211V4.56619H1.22071V4.52611H1.2393V4.48856H1.25814V4.45099H1.27674V4.41342H1.29534V4.37586H1.31394V4.33829H1.33279V4.30072H1.35139V4.26315H1.36998V4.22559H1.38858V4.18801H1.40742V4.15045H1.42602V4.13042H1.44462V4.09286H1.46347V4.05528H1.48207V4.01772H1.50066V4.00019H1.51926V3.96262H1.5381V3.92505H1.5567V3.88749H1.5753V3.86744H1.59415V3.82989H1.61274V3.79232H1.63134V3.77225H1.64994V3.7347H1.66878V3.71718H1.68738V3.67962H1.70597V3.65956H1.72457V3.622H1.74343V3.60448H1.76202V3.56693H1.78061V3.52682H1.79946V3.50929H1.81806V3.48927H1.83666V3.45168H1.85525V3.43415H1.87411V3.3966H1.8927V3.37656H1.9113V3.35901H1.93013V3.32146H1.94874V3.30142H1.96733V3.26386H1.98594V3.24632H2.00478V3.22629H2.02339V3.18872H2.04198V3.1687H2.06057V3.15117H2.07942V3.11358H2.09802V3.09356H2.11661V3.07603H2.13546V3.05599H2.15406V3.01842H2.17266V3.00089H2.19126V2.98085H2.21009V2.96332H2.2287V2.92575H2.24729V2.90573H2.26615V2.88819H2.28474V2.86816H2.30335V2.84813H2.32194V2.8306H2.34078V2.79302H2.35937V2.77299H2.37797V2.75546H2.39657V2.73542H2.41542V2.71789H2.43401V2.69787H2.4526V2.66028H2.47146V2.64275H2.49005V2.62273H2.50866V2.60519H2.52725V2.58514H2.54609V2.56761H2.56468V2.54759H2.58329V2.53005H2.60213V2.51003H2.62074V2.48999H2.63933V2.47245H2.65792V2.45243H2.67677V2.43489H2.69536V2.41485H2.71397V2.39732H2.73256V2.3773H2.75142V2.35975H2.77001V2.33972H2.78861V2.32218H2.80744V2.30216H2.82605V2.28463H2.84464V2.26458H2.86323V2.24704H2.88209V2.22702H2.90068V2.20949H2.91929V2.18945H2.93813V2.1694H2.95673V2.15188H2.97532V2.13183H2.99392V2.11432H3.03137V2.09427H3.04997V2.07675H3.06881V2.05669H3.0874V2.0392H3.10601V2.01913H3.1246V2.00161H3.14346V1.98156H3.18064V1.96406H3.19925V1.94399H3.21808V1.92647H3.23668V1.90642H3.25528V1.88892H3.27413V1.86887H3.31133V1.85135H3.32992V1.83128H3.34877V1.81126H3.38597V1.79373H3.40481V1.7737H3.4234V1.75617H3.44201V1.73612H3.47944V1.71859H3.49804V1.69856H3.51664V1.68103H3.53523V1.661H3.57268V1.64345H3.59129V1.62343H3.62873V1.60589H3.64732V1.58585H3.66591V1.56832H3.70336V1.5483H3.72197V1.53075H3.7594V1.51072H3.77799V1.49069H3.7966V1.47316H3.83405V1.45312H3.85264V1.43559H3.89008V1.41557H3.90868V1.39802H3.94613V1.378H3.96473V1.36046H4.00192V1.34042H4.03936V1.32289H4.05795V1.30286H4.09539V1.28533H4.11399V1.26529H4.15144V1.24775H4.17004V1.22773H4.20723V1.21019H4.24467V1.19015H4.28212V1.17261H4.30071V1.15259H4.33791V1.13255H4.37535V1.11502H4.4128V1.09499H4.4314V1.07746H4.46859V1.05742H4.50604V1.03988H4.54322V1.01986H4.58067V1.00232H4.61811V0.982298H4.6553V0.964761H4.69275V0.944722H4.72995V0.927184H4.76739V0.907162H4.78598V0.889626H4.84204V0.869586H4.87923V0.852048H4.91667V0.832026H4.95412V0.811987H4.9913V0.794449H5.04735V0.774427H5.0848V0.75689H5.12199V0.73685H5.15943V0.719313H5.21547V0.699291H5.25267V0.681755H5.3087V0.661714H5.34589V0.644178H5.40195V0.624156H5.43939V0.606618H5.49543V0.586595H5.55147V0.569059H5.60726V0.54902H5.6633V0.531482H5.71935V0.51146H5.77537V0.493923H5.83142V0.473883H5.88746V0.453826H5.94325V0.436324H6.0179V0.416266H6.07392V0.398747H6.14857V0.378691H6.20461V0.361188H6.29809V0.341131H6.37274V0.323611H6.44737V0.303554H6.54061V0.286051H6.61525V0.265995H6.72733V0.248475H6.83942V0.228435H6.93265V0.210915H7.06333V0.190859H7.21261V0.173357H7.38072V0.153299H7.62323V0.13326H8.03412V0.115723H238.007V0.13326H238.416V0.153299H238.68V0.173357H238.828V0.190859H238.976V0.210915H239.108V0.228435H239.22V0.248475H239.314V0.265995H239.426V0.286051H239.52V0.303554H239.594V0.323611H239.668V0.341131H239.76V0.361188H239.835V0.378691H239.892V0.398747H239.966V0.416266H240.023V0.436324H240.098V0.453826H240.152V0.473883H240.229V0.493923H240.284V0.51146H240.34V0.531482H240.395V0.54902H240.432V0.569059H240.49V0.586595H240.546V0.606618H240.6V0.624156H240.638V0.644178H240.696V0.661714H240.732V0.681755H240.786V0.699291H240.844V0.719313H240.882V0.73685H240.918V0.75689H240.976V0.774427H241.012V0.794449H241.05V0.811987H241.087V0.832026H241.124V0.852048H241.178V0.869586H241.218V0.889626H241.256V0.907162H241.293V0.927184H241.33V0.944722H241.367V0.964761H241.404V0.982298H241.442V1.00232H241.478V1.01986H241.516V1.03988H241.536V1.05742H241.573V1.07746H241.61V1.09499H241.647V1.11502H241.684V1.13255H241.702V1.15259H241.738V1.17261H241.776V1.19015H241.796V1.21019H241.834V1.22773H241.87V1.24775H241.908V1.26529H241.927V1.28533H241.965V1.30286H241.982V1.32289H242.02V1.34042H242.04V1.36046H242.076V1.378H242.094V1.39802H242.131V1.41557H242.168V1.43559H242.188V1.45312H242.226V1.47316H242.245V1.49069H242.262V1.51072H242.3V1.53075H242.32V1.5483H242.356V1.56832H242.374V1.58585H242.394V1.60589H242.431V1.62343H242.448V1.64345H242.485V1.661H242.506V1.68103H242.522V1.69856H242.542V1.71859H242.58V1.73612H242.6V1.75617H242.616V1.7737H242.654V1.79373H242.674V1.81126H242.692V1.83128H242.711V1.85135H242.748V1.86887H242.766V1.88892H242.786V1.90642H242.802V1.92647H242.822V1.94399H242.86V1.96406H242.88V1.98156H242.896V2.00161H242.917V2.01913H242.934V2.0392H242.954V2.05669H242.991V2.07675H243.008V2.09427H243.028V2.11432H243.046V2.13183H243.066V2.15188H243.082V2.1694H243.104V2.18945H243.12V2.20949H243.14V2.22702H243.157V2.24704H243.178V2.26458H243.195V2.28463H243.214V2.30216H243.252V2.32218H243.271V2.33972H243.288V2.35975H243.309V2.3773H243.326V2.39732H243.346V2.41485H243.363V2.43489H243.383V2.45243H243.4V2.48999H243.42V2.51003H243.438V2.53005H243.458V2.54759H243.475V2.56761H243.494V2.58514H243.512V2.60519H243.532V2.62273H243.551V2.64275H243.57V2.66028H243.589V2.68032H243.606V2.69787H243.626V2.71789H243.644V2.75546H243.663V2.77299H243.68V2.79302H243.7V2.81056H243.718V2.8306H243.738V2.84813H243.755V2.88819H243.776V2.90573H243.792V2.92575H243.812V2.94329H243.829V2.96332H243.85V3.00089H243.866V3.01842H243.886V3.03844H243.906V3.05599H243.924V3.09356H243.943V3.11358H243.96V3.13112H243.981V3.1687H243.998V3.18872H244.018V3.20876H244.035V3.22629H244.056V3.26386H244.072V3.2839H244.092V3.32146H244.11V3.33899H244.13V3.35901H244.146V3.3966H244.166V3.41413H244.184V3.45168H244.204V3.47174H244.223V3.48927H244.24V3.52682H244.261V3.54686H244.278V3.58443H244.298V3.622H244.316V3.64204H244.336V3.67962H244.352V3.69711H244.372V3.7347H244.39V3.75475H244.41V3.79232H244.426V3.80984H244.446V3.84739H244.464V3.88749H244.484V3.92505H244.501V3.94258H244.522V3.98017H244.538V4.01772H244.558V4.05528H244.578V4.07531H244.596V4.11288H244.616V4.15045H244.632V4.18801H244.653V4.22559H244.67V4.26315H244.69V4.28319H244.706V4.32074H244.727V4.35833H244.744V4.39588H244.764V4.43344H244.782V4.47102H244.802V4.50858H244.818V4.56619H244.838V4.60375H244.856V4.64131H244.876V4.6789H244.896V4.71645H244.912V4.77157H244.933V4.80912H244.95V4.84668H244.97V4.90429H244.988V4.94186H245.007V4.99946H245.024V5.03702H245.044V5.09214H245.062V5.12969H245.082V5.18728H245.098V5.2449H245.12V5.29998H245.136V5.35761H245.156V5.4127H245.173V5.47031H245.194V5.5254H245.211V5.58301H245.23V5.64061H245.25V5.71575H245.268V5.77086H245.287V5.846H245.304V5.90359H245.325V5.99875H245.342V6.07389H245.362V6.14903H245.378V6.2417H245.4V6.33685H245.416V6.43201H245.436V6.54472H245.454V6.63989H245.474V6.79015H245.491V6.94043H245.51V7.11075H245.528V7.35619H245.548V162.988H245.528V163.234H245.51V163.404H245.491V163.554H245.474V163.687H245.454V163.8H245.436V163.913H245.416V164.006H245.4V164.101H245.378V164.176H245.362V164.271H245.342V164.346H245.325V164.422H245.304V164.497H245.287V164.554H245.268V164.629H245.25V164.685H245.23V164.762H245.211V164.818H245.194V164.875H245.173V164.931H245.156V164.988H245.136V165.044H245.12V165.101H245.098V165.157H245.082V165.194H245.062V165.251H245.044V165.289H245.024V165.346H245.007V165.384H244.988V165.44H244.97V165.497H244.95V165.534H244.933V165.572H244.912V165.61H244.896V165.647H244.876V165.703H244.856V165.741H244.838V165.78H244.818V165.816H244.802V165.855H244.782V165.893H244.764V165.93H244.744V165.968H244.727V166.006H244.706V166.043H244.69V166.081H244.67V166.119H244.653V166.156H244.632V166.194H244.616V166.232H244.596V166.251H244.578V166.289H244.558V166.325H244.538V166.364H244.522V166.382H244.501V166.42H244.484V166.458H244.464V166.495H244.446V166.515H244.426V166.552H244.41V166.571H244.39V166.608H244.372V166.628H244.352V166.665H244.336V166.685H244.316V166.721H244.298V166.76H244.278V166.778H244.261V166.816H244.24V166.834H244.223V166.873H244.204V166.891H244.184V166.911H244.166V166.948H244.146V166.967H244.13V167.004H244.11V167.024H244.092V167.042H244.072V167.081H244.056V167.099H244.035V167.137H244.018V167.155H243.998V167.174H243.981V167.194H243.96V167.23H243.943V167.25H243.924V167.269H243.906V167.287H243.886V167.325H243.866V167.344H243.85V167.363H243.829V167.4H243.812V167.42H243.792V167.438H243.776V167.457H243.755V167.476H243.738V167.495H243.718V167.533H243.7V167.551H243.68V167.57H243.663V167.59H243.644V167.608H243.626V167.626H243.606V167.646H243.589V167.683H243.57V167.703H243.551V167.721H243.532V167.739H243.512V167.759H243.494V167.778H243.475V167.796H243.458V167.816H243.438V167.834H243.42V167.853H243.4V167.872H243.383V167.891H243.363V167.909H243.346V167.929H243.326V167.947H243.309V167.966H243.288V167.985H243.271V168.004H243.252V168.022H243.234V168.042H243.214V168.06H243.195V168.079H243.178V168.099H243.157V168.117H243.14V168.135H243.12V168.155H243.104V168.174H243.082V168.192H243.066V168.212H243.046V168.23H243.008V168.248H242.991V168.268H242.972V168.287H242.954V168.305H242.934V168.325H242.917V168.343H242.88V168.362H242.86V168.381H242.84V168.4H242.822V168.418H242.802V168.438H242.786V168.456H242.748V168.475H242.728V168.495H242.711V168.513H242.692V168.531H242.654V168.551H242.637V168.569H242.616V168.588H242.6V168.608H242.562V168.626H242.542V168.644H242.522V168.664H242.485V168.683H242.468V168.701H242.448V168.721H242.411V168.739H242.394V168.758H242.356V168.777H242.336V168.796H242.32V168.814H242.282V168.834H242.262V168.852H242.226V168.871H242.207V168.89H242.188V168.909H242.15V168.927H242.114V168.947H242.094V168.965H242.056V168.984H242.04V169.004H242.002V169.022H241.982V169.04H241.944V169.06H241.927V169.078H241.89V169.097H241.851V169.117H241.834V169.135H241.796V169.153H241.76V169.173H241.722V169.192H241.702V169.21H241.664V169.23H241.628V169.248H241.59V169.267H241.573V169.286H241.536V169.305H241.496V169.323H241.458V169.343H241.422V169.361H241.384V169.38H241.346V169.399H241.31V169.418H241.272V169.436H241.236V169.456H241.198V169.474H241.162V169.493H241.124V169.513H241.066V169.531H241.03V169.549H240.992V169.569H240.956V169.588H240.901V169.606H240.863V169.626H240.824V169.644H240.77V169.662H240.712V169.682H240.676V169.701H240.621V169.719H240.583V169.739H240.526V169.757H240.47V169.776H240.416V169.795H240.358V169.814H240.303V169.832H240.246V169.852H240.191V169.87H240.134V169.889H240.078V169.909H240.004V169.927H239.949V169.945H239.874V169.965H239.797V169.983H239.723V170.002H239.648V170.022H239.557V170.04H239.48V170.058H239.388V170.078H239.277V170.097H239.162V170.115H239.071V170.135H238.922V170.153H238.771V170.172H238.567V170.191H238.324V170.21" fill="#754FE9"/>
<path d="M146.663 170.195V195.364H99.3779V170.195H146.663Z" fill="#D4C8F8"/>
<path d="M91.4175 196.857V194.726H91.4368V194.5H91.456V194.312H91.4752V194.199H91.4925V194.085H91.5117V193.972H91.5309V193.878H91.5482V193.803H91.5674V193.726H91.5866V193.651H91.6059V193.576H91.6231V193.501H91.6425V193.444H91.6616V193.388H91.6789V193.33H91.6982V193.274H91.7174V193.199H91.7365V193.161H91.7539V193.106H91.7731V193.067H91.7923V193.011H91.8096V192.954H91.8288V192.916H91.848V192.86H91.8673V192.821H91.8845V192.785H91.9037V192.746H91.923V192.69H91.9402V192.653H91.9596V192.615H91.9787V192.577H91.9979V192.539H92.0153V192.502H92.0345V192.464H92.0536V192.425H92.071V192.389H92.0902V192.35H92.1094V192.312H92.1287V192.294H92.1459V192.256H92.1651V192.219H92.1844V192.181H92.2016V192.143H92.2209V192.124H92.2401V192.086H92.2593V192.049H92.2767V192.031H92.2958V191.993H92.315V191.973H92.3324V191.936H92.3516V191.898H92.3707V191.88H92.3901V191.841H92.4073V191.823H92.4265V191.785H92.4458V191.767H92.463V191.728H92.4822V191.71H92.5015V191.69H92.5207V191.653H92.538V191.635H92.5572V191.597H92.5764V191.577H92.5938V191.54H92.6129V191.52H92.6321V191.502H92.6514V191.484H92.6687V191.446H92.6878V191.427H92.7072V191.407H92.7244V191.371H92.7436V191.351H92.7629V191.332H92.7821V191.314H92.7994V191.276H92.8186V191.257H92.8378V191.238H92.8551V191.219H92.8743V191.201H92.8935V191.163H92.9127V191.144H92.93V191.125H92.9492V191.106H92.9685V191.088H92.9858V191.068H93.0049V191.031H93.0243V191.013H93.0434V190.993H93.0608V190.975H93.08V190.955H93.0992V190.936H93.1165V190.918H93.1357V190.9H93.1549V190.88H93.1741V190.862H93.1914V190.843H93.2106V190.823H93.2299V190.805H93.2471V190.785H93.2663V190.767H93.2856V190.73H93.3029V190.71H93.322V190.692H93.3414V190.672H93.3605V190.654H93.3779V190.635H93.3971V190.616H93.4336V190.597H93.4528V190.579H93.472V190.56H93.4912V190.541H93.5085V190.522H93.5277V190.502H93.547V190.484H93.5642V190.466H93.5834V190.447H93.6027V190.427H93.6219V190.409H93.6391V190.389H93.6585V190.371H93.695V190.353H93.7142V190.333H93.7334V190.314H93.7525V190.296H93.7699V190.278H93.7891V190.258H93.8256V190.239H93.8448V190.22H93.8641V190.201H93.8833V190.183H93.9007V190.164H93.9198V190.145H93.9564V190.126H93.9756V190.108H93.9947V190.088H94.0139V190.07H94.0505V190.05H94.0698V190.032H94.087V190.013H94.1255V189.995H94.1447V189.975H94.1619V189.957H94.2004V189.937H94.2178V189.918H94.2369V189.9H94.2561V189.882H94.2927V189.862H94.3118V189.843H94.3484V189.825H94.3676V189.805H94.3869V189.787H94.4233V189.767H94.4426V189.749H94.479V189.73H94.4983V189.712H94.5367V189.692H94.554V189.674H94.5732V189.654H94.6098V189.636H94.6289V189.617H94.6674V189.597H94.6847V189.579H94.7232V189.561H94.7597V189.542H94.7789V189.522H94.8154V189.504H94.8346V189.484H94.8711V189.466H94.8903V189.448H94.9288V189.429H94.9654V189.409H94.9845V189.391H95.0211V189.373H95.0575V189.353H95.0768V189.334H95.1152V189.315H95.1517V189.296H95.1709V189.278H95.2074V189.259H95.2459V189.24H95.2825V189.221H95.3016V189.202H95.3382V189.183H95.3765V189.165H95.4131V189.146H95.4496V189.127H95.488V189.108H95.5245V189.09H95.5438V189.07H95.5802V189.052H95.6187V189.032H95.6553V189.013H95.6936V188.995H95.7302V188.977H95.7687V188.957H95.8052V188.939H95.8416V188.919H95.8801V188.9H95.9358V188.882H95.9724V188.862H96.0107V188.844H96.0473V188.825H96.0858V188.807H96.1223V188.787H96.1607V188.769H96.2164V188.749H96.2529V188.731H96.3087V188.712H96.3472V188.694H96.3836V188.674H96.4394V188.656H96.4778V188.637H96.5143V188.618H96.57V188.599H96.6085V188.579H96.6643V188.561H96.72V188.543H96.7565V188.524H96.8122V188.504H96.8699V188.486H96.9063V188.466H96.9622V188.448H97.0179V188.429H97.0736V188.411H97.1313V188.391H97.187V188.373H97.2427V188.355H97.2985V188.335H97.3542V188.316H97.4099V188.297H97.4848V188.278H97.5407V188.26H97.5964V188.241H97.6713V188.222H97.727V188.203H97.802V188.183H97.8578V188.165H97.9327V188.147H98.0076V188.127H98.0826V188.108H98.1575V188.09H98.2324V188.072H98.3247V188.052H98.3997V188.034H98.4938V188.014H98.586V187.995H98.6803V187.977H98.7552V187.959H98.8667V187.939H98.9782V187.92H99.0896V187.902H99.203V187.882H99.3336V187.864H99.4816V187.844H99.6124V187.826H99.7815V187.807H99.9678V187.789H100.173V187.769H100.471V187.751H100.938V187.731H145.122V187.751H145.57V187.769H145.869V187.789H146.075V187.807H146.28V187.826H146.429V187.844H146.579V187.864H146.709V187.882H146.84V187.902H146.952V187.92H147.064V187.939H147.177V187.959H147.288V187.977H147.38V187.995H147.456V188.014H147.549V188.034H147.642V188.052H147.736V188.072H147.811V188.09H147.885V188.108H147.961V188.127H148.034V188.147H148.109V188.165H148.184V188.183H148.259V188.203H148.314V188.222H148.37V188.241H148.445V188.26H148.501V188.278H148.576V188.297H148.632V188.316H148.688V188.335H148.744V188.355H148.801V188.373H148.857V188.391H148.912V188.411H148.968V188.429H149.024V188.448H149.08V188.466H149.136V188.486H149.193V188.504H149.229V188.524H149.285V188.543H149.34V188.561H149.379V188.579H149.435V188.599H149.491V188.618H149.528V188.637H149.565V188.656H149.621V188.674H149.658V188.694H149.696V188.712H149.752V188.731H149.788V188.749H149.845V188.769H149.883V188.787H149.92V188.807H149.957V188.825H149.994V188.844H150.05V188.862H150.088V188.882H150.125V188.9H150.163V188.919H150.2V188.939H150.236V188.957H150.275V188.977H150.312V188.995H150.349V189.013H150.386V189.032H150.425V189.052H150.461V189.07H150.498V189.09H150.536V189.108H150.572V189.127H150.611V189.146H150.628V189.165H150.667V189.183H150.704V189.202H150.741V189.221H150.778V189.24H150.797V189.259H150.834V189.278H150.873V189.296H150.909V189.315H150.928V189.334H150.964V189.353H151.003V189.373H151.04V189.391H151.059V189.409H151.096V189.429H151.115V189.448H151.152V189.466H151.189V189.484H151.209V189.504H151.245V189.522H151.265V189.542H151.301V189.561H151.32V189.579H151.356V189.597H151.376V189.617H151.412V189.636H151.451V189.654H151.469V189.674H151.488V189.692H151.525V189.712H151.544V189.73H151.581V189.749H151.601V189.767H151.618V189.787H151.657V189.805H151.674V189.825H151.712V189.843H151.731V189.862H151.768V189.882H151.787V189.9H151.804V189.918H151.824V189.937H151.863V189.957H151.88V189.975H151.899V189.995H151.936V190.013H151.954V190.032H151.973V190.05H152.01V190.07H152.029V190.088H152.049V190.108H152.066V190.126H152.104V190.145H152.122V190.164H152.141V190.183H152.16V190.201H152.179V190.22H152.216V190.239H152.235V190.258H152.252V190.278H152.272V190.296H152.291V190.314H152.309V190.333H152.346V190.353H152.365V190.371H152.384V190.389H152.402V190.409H152.421V190.427H152.441V190.447H152.458V190.466H152.477V190.484H152.497V190.502H152.514V190.522H152.552V190.541H152.571V190.56H152.588V190.579H152.608V190.597H152.627V190.616H152.644V190.635H152.664V190.654H152.683V190.672H152.701V190.692H152.72V190.71H152.738V190.73H152.757V190.748H152.776V190.767H152.794V190.785H152.813V190.805H152.833V190.823H152.85V190.843H152.869V190.862H152.889V190.88H152.906V190.9H152.925V190.936H152.944V190.955H152.963V190.975H152.98V190.993H153V191.013H153.019V191.031H153.036V191.05H153.056V191.068H153.075V191.106H153.093V191.125H153.112V191.144H153.131V191.163H153.149V191.183H153.168V191.201H153.186V191.219H153.205V191.257H153.225V191.276H153.242V191.296H153.261V191.314H153.281V191.351H153.298V191.371H153.317V191.389H153.336V191.427H153.355V191.446H153.373V191.465H153.392V191.484H153.411V191.52H153.428V191.54H153.448V191.559H153.467V191.597H153.485V191.615H153.504V191.653H153.523V191.672H153.541V191.71H153.56V191.728H153.578V191.748H153.597V191.785H153.617V191.803H153.634V191.841H153.653V191.86H153.673V191.898H153.69V191.918H153.709V191.955H153.728V191.993H153.746V192.011H153.765V192.049H153.784V192.086H153.803V192.106H153.82V192.143H153.84V192.162H153.859V192.201H153.876V192.237H153.896V192.276H153.915V192.312H153.933V192.35H153.952V192.389H153.97V192.407H153.989V192.445H154.008V192.483H154.026V192.52H154.045V192.558H154.065V192.595H154.082V192.653H154.101V192.69H154.121V192.728H154.138V192.766H154.157V192.803H154.176V192.841H154.195V192.898H154.212V192.954H154.232V192.991H154.251V193.048H154.268V193.086H154.288V193.142H154.307V193.199H154.325V193.255H154.344V193.312H154.362V193.369H154.381V193.425H154.4V193.482H154.418V193.557H154.437V193.633H154.457V193.708H154.474V193.783H154.493V193.859H154.513V193.934H154.53V194.047H154.549V194.16H154.568V194.274H154.587V194.443H154.604V194.631H154.624V196.857" fill="#754FE9"/>
<path d="M139.035 158.57C139.035 160.263 137.676 161.636 136 161.636C134.324 161.636 132.965 160.263 132.965 158.57C132.965 156.876 134.324 155.505 136 155.505C137.676 155.505 139.035 156.876 139.035 158.57Z" fill="#F4F1FD"/>
<path d="M126.055 158.57C126.055 160.263 124.696 161.636 123.019 161.636C121.343 161.636 119.984 160.263 119.984 158.57C119.984 156.876 121.343 155.505 123.019 155.505C124.696 155.505 126.055 156.876 126.055 158.57Z" fill="#F4F1FD"/>
<path d="M113.085 158.57C113.085 160.263 111.726 161.636 110.05 161.636C108.374 161.636 107.015 160.263 107.015 158.57C107.015 156.876 108.374 155.505 110.05 155.505C111.726 155.505 113.085 156.876 113.085 158.57Z" fill="#F4F1FD"/>
<path d="M7.64453 11.1687C7.64453 9.60684 8.89815 8.3407 10.4445 8.3407H235.477C237.024 8.3407 238.277 9.60684 238.277 11.1687V140.393C238.277 141.956 237.024 143.221 235.477 143.221H10.4445C8.89815 143.221 7.64453 141.956 7.64453 140.393V11.1687Z" fill="#F4F1FD"/>
<path d="M22.4867 45.1242V45.105H22.2999V45.0859H22.1693V45.0691H22.0574V45.05H21.9268V45.0307H21.852V45.0116H21.7774V44.9924H21.7027V44.9733H21.628V44.9541H21.5533V44.9374H21.4787V44.9182H21.4227V44.8991H21.3668V44.8799H21.3293V44.8608H21.2733V44.8417H21.2174V44.8225H21.1799V44.8034H21.124V44.7865H21.068V44.7674H21.0305V44.7482H20.9747V44.7291H20.9374V44.7099H20.8999V44.6908H20.8628V44.6716H20.8253V44.6525H20.788V44.6357H20.7507V44.6166H20.7134V44.5973H20.6759V44.5783H20.6387V44.559H20.6013V44.5399H20.564V44.5207H20.5453V44.5016H20.508V44.4848H20.4707V44.4657H20.4522V44.4465H20.4147V44.4274H20.3774V44.4083H20.3587V44.3891H20.3213V44.3698H20.3028V44.3507H20.2653V44.3339H20.228V44.3148H20.2093V44.2957H20.1907V44.2765H20.1534V44.2574H20.1347V44.2382H20.1159V44.2191H20.0787V44.1999H20.06V44.1832H20.0413V44.1639H20.004V44.1449H19.9853V44.1256H19.9665V44.1065H19.9294V44.0873H19.9107V44.0682H19.8919V44.049H19.8547V44.0323H19.8359V44.0131H19.8173V43.994H19.7988V43.9748H19.78V43.9557H19.7613V43.9364H19.7428V43.9173H19.724V43.8981H19.7053V43.8814H19.6867V43.8622H19.6494V43.8431H19.6307V43.824H19.6119V43.8048H19.5934V43.7857H19.5747V43.7665H19.5559V43.7474H19.5373V43.7306H19.5188V43.7115H19.5V43.6922H19.4813V43.6731H19.4625V43.6539H19.444V43.6156H19.4253V43.5965H19.4067V43.5797H19.3882V43.5606H19.3694V43.5414H19.3507V43.5223H19.3319V43.503H19.3134V43.484H19.2947V43.4647H19.2759V43.4456H19.2573V43.4097H19.2388V43.3906H19.22V43.3714H19.2013V43.3331H19.1825V43.314H19.164V43.2972H19.1453V43.2588H19.1267V43.2398H19.1079V43.2205H19.0894V43.1822H19.0707V43.1631H19.0519V43.1463H19.0334V43.108H19.0147V43.0889H18.996V43.0697H18.9773V43.0313H18.9588V43.0122H18.94V42.9763H18.9213V42.938H18.9025V42.9188H18.884V42.8805H18.8654V42.8445H18.8467V42.8255H18.8279V42.7871H18.8094V42.7488H18.7907V42.7297H18.7719V42.6938H18.7534V42.6555H18.7347V42.6172H18.716V42.5789H18.6973V42.5429H18.6788V42.5046H18.66V42.4663H18.6413V42.428H18.6227V42.3921H18.604V42.3537H18.5854V42.3154H18.5667V42.2771H18.5479V42.2221H18.5294V42.1646H18.5107V42.1262H18.4919V42.0712H18.4733V42.0137H18.4548V41.9754H18.436V41.9204H18.4173V41.8628H18.3988V41.8054H18.38V41.7312H18.3613V41.6545H18.3427V41.5995H18.324V41.5229H18.3054V41.4486H18.2867V41.372H18.2679V41.2404H18.2494V41.1278H18.2307V40.996H18.2119V40.8451H18.1933V40.5626H18.1748V23.8588H18.1933V23.5762H18.2119V23.4254H18.2307V23.3104H18.2494V23.1786H18.2679V23.0661H18.2867V22.992H18.3054V22.9153H18.324V22.8411H18.3427V22.7645H18.3613V22.6902H18.38V22.6136H18.3988V22.5586H18.4173V22.5203H18.436V22.4627H18.4548V22.4077H18.4733V22.3502H18.4919V22.3119H18.5107V22.2568H18.5294V22.1993H18.5479V22.161H18.5667V22.1228H18.5854V22.0869H18.604V22.0484H18.6227V22.0102H18.6413V21.9551H18.66V21.9168H18.6788V21.8785H18.6973V21.8401H18.716V21.8042H18.7347V21.7659H18.7534V21.7276H18.7719V21.7085H18.7907V21.6702H18.8094V21.6343H18.8279V21.615H18.8467V21.5769H18.8654V21.5576H18.884V21.5193H18.9025V21.4834H18.9213V21.4643H18.94V21.426H18.9588V21.3877H18.9773V21.3684H18.996V21.3325H19.0147V21.3134H19.0334V21.2942H19.0519V21.2559H19.0707V21.2368H19.0894V21.2176H19.1079V21.1816H19.1267V21.1626H19.1453V21.1433H19.164V21.1051H19.1825V21.0859H19.2013V21.0667H19.22V21.0308H19.2388V21.0117H19.2573V20.9926H19.2759V20.9734H19.2947V20.9543H19.3134V20.935H19.3319V20.916H19.3507V20.88H19.3694V20.8608H19.3882V20.8417H19.4067V20.8225H19.4253V20.8034H19.444V20.7842H19.4625V20.7675H19.4813V20.7482H19.5V20.7292H19.5188V20.7099H19.5373V20.6716H19.5747V20.6525H19.5934V20.6333H19.6119V20.6166H19.6307V20.5974H19.6494V20.5783H19.668V20.5592H19.6867V20.54H19.7053V20.5209H19.724V20.5016H19.7428V20.4826H19.78V20.4657H19.7988V20.4466H19.8173V20.4274H19.8359V20.4083H19.8547V20.3891H19.8734V20.37H19.8919V20.3508H19.9294V20.3317H19.948V20.3149H19.9665V20.2958H20.004V20.2765H20.0228V20.2575H20.0413V20.2382H20.0787V20.2191H20.0974V20.1999H20.1159V20.1808H20.1534V20.164H20.1719V20.1449H20.1907V20.1257H20.228V20.1066H20.2465V20.0875H20.284V20.0683H20.3028V20.049H20.34V20.0299H20.3774V20.0131H20.3959V19.994H20.4334V19.9749H20.4707V19.9557H20.4893V19.9366H20.5265V19.9174H20.564V19.8983H20.5828V19.8791H20.62V19.8624H20.6574V19.8431H20.6947V19.8241H20.732V19.8048H20.7693V19.7857H20.8068V19.7665H20.844V19.7474H20.8813V19.7282H20.9374V19.7115H20.9747V19.6923H21.012V19.6732H21.0493V19.654H21.1053V19.6349H21.1427V19.6156H21.1987V19.5965H21.2547V19.5775H21.3105V19.5606H21.348V19.5415H21.404V19.5223H21.4599V19.5032H21.5347V19.484H21.6093V19.4649H21.6653V19.4457H21.7399V19.4266H21.8147V19.4098H21.8893V19.3907H22.0014V19.3714H22.132V19.3523H22.2439V19.3331H22.3745V19.314H22.636V19.2948H223.264V19.314H223.544V19.3331H223.658V19.3523H223.789V19.3714H223.9V19.3907H224.012V19.4098H224.087V19.4266H224.16V19.4457H224.237V19.4649H224.31V19.484H224.386V19.5032H224.44V19.5223H224.498V19.5415H224.552V19.5606H224.61V19.5775H224.647V19.5965H224.702V19.6156H224.758V19.6349H224.815V19.654H224.85V19.6732H224.908V19.6923H224.946V19.7115H224.983V19.7282H225.018V19.7474H225.058V19.7665H225.095V19.7857H225.133V19.8048H225.168V19.8241H225.206V19.8431H225.244V19.8624H225.282V19.8791H225.318V19.8983H225.356V19.9174H225.374V19.9366H225.413V19.9557H225.448V19.9749H225.468V19.994H225.506V20.0131H225.543V20.0299H225.562V20.049H225.598V20.0683H225.616V20.0875H225.654V20.1066H225.692V20.1257H225.711V20.1449H225.731V20.164H225.766V20.1808H225.784V20.1999H225.804V20.2191H225.842V20.2382H225.861V20.2575H225.879V20.2765H225.916V20.2958H225.934V20.3149H225.954V20.3317H225.991V20.3508H226.01V20.37H226.026V20.3891H226.046V20.4083H226.064V20.4274H226.102V20.4466H226.122V20.4657H226.14V20.4826H226.159V20.5016H226.176V20.5209H226.194V20.54H226.214V20.5592H226.234V20.5783H226.252V20.5974H226.271V20.6166H226.309V20.6333H226.326V20.6525H226.344V20.6716H226.364V20.6908H226.382V20.7099H226.402V20.7292H226.42V20.7675H226.439V20.7842H226.458V20.8034H226.474V20.8225H226.494V20.8417H226.512V20.8608H226.532V20.88H226.55V20.8991H226.57V20.916H226.589V20.935H226.607V20.9734H226.624V20.9926H226.642V21.0117H226.662V21.0308H226.682V21.05H226.7V21.0859H226.719V21.1051H226.738V21.1242H226.757V21.1626H226.774V21.1816H226.792V21.2009H226.812V21.2368H226.83V21.2559H226.85V21.2751H226.868V21.3134H226.887V21.3325H226.906V21.3517H226.922V21.3877H226.942V21.4068H226.96V21.4451H226.98V21.4834H226.998V21.5026H227.018V21.5385H227.037V21.5769H227.055V21.5959H227.072V21.6343H227.092V21.6702H227.11V21.6893H227.13V21.7276H227.148V21.7659H227.167V21.8042H227.186V21.8401H227.205V21.8785H227.222V21.9168H227.24V21.9551H227.26V21.991H227.278V22.0293H227.298V22.0677H227.316V22.106H227.335V22.1419H227.354V22.1802H227.37V22.2376H227.39V22.2928H227.408V22.3502H227.428V22.3885H227.447V22.4436H227.466V22.501H227.485V22.5586H227.503V22.5945H227.52V22.671H227.54V22.7452H227.558V22.8219H227.578V22.8961H227.596V22.9728H227.615V23.0279H227.634V23.1427H227.653V23.2745H227.67V23.3871H227.688V23.5187H227.708V23.7821H227.726V40.6561H227.708V40.9194H227.688V41.0343H227.67V41.1661H227.653V41.2787H227.634V41.3912H227.615V41.4677H227.596V41.542H227.578V41.6186H227.558V41.6928H227.54V41.7504H227.52V41.8246H227.503V41.882H227.485V41.9394H227.466V41.9754H227.447V42.0329H227.428V42.0903H227.408V42.1455H227.39V42.1838H227.37V42.2412H227.354V42.2771H227.335V42.3154H227.316V42.3537H227.298V42.4089H227.278V42.4471H227.26V42.4854H227.24V42.5237H227.222V42.5596H227.205V42.5979H227.186V42.6363H227.167V42.6746H227.148V42.7105H227.13V42.7297H227.11V42.7681H227.092V42.8064H227.072V42.8255H227.055V42.8614H227.037V42.8805H227.018V42.9188H226.998V42.9571H226.98V42.9763H226.96V43.0122H226.942V43.0506H226.922V43.0697H226.906V43.0889H226.887V43.1272H226.868V43.1463H226.85V43.1631H226.83V43.2014H226.812V43.2205H226.792V43.2588H226.774V43.2781H226.757V43.2972H226.738V43.3331H226.719V43.3522H226.7V43.3714H226.682V43.4097H226.662V43.4288H226.642V43.4456H226.624V43.4647H226.607V43.484H226.589V43.503H226.57V43.5223H226.55V43.5414H226.532V43.5606H226.512V43.5965H226.494V43.6156H226.474V43.6348H226.458V43.6539H226.439V43.6731H226.42V43.6922H226.402V43.7115H226.382V43.7306H226.364V43.7474H226.344V43.7665H226.326V43.7857H226.309V43.8048H226.29V43.824H226.271V43.8431H226.252V43.8622H226.234V43.8814H226.214V43.8981H226.194V43.9173H226.159V43.9364H226.14V43.9557H226.122V43.9748H226.102V43.994H226.084V44.0131H226.064V44.0323H226.046V44.049H226.026V44.0682H225.991V44.0873H225.972V44.1065H225.954V44.1256H225.916V44.1449H225.896V44.1639H225.879V44.1832H225.842V44.1999H225.823V44.2191H225.804V44.2382H225.766V44.2574H225.746V44.2765H225.731V44.2957H225.692V44.3148H225.674V44.3339H225.636V44.3507H225.616V44.3698H225.581V44.3891H225.543V44.4083H225.524V44.4274H225.486V44.4465H225.468V44.4657H225.431V44.4848H225.394V44.5016H225.374V44.5207H225.336V44.5399H225.298V44.559H225.282V44.5783H225.226V44.5973H225.188V44.6166H225.15V44.6357H225.114V44.6525H225.076V44.6716H225.038V44.6908H225V44.7099H224.965V44.7291H224.926V44.7482H224.888V44.7674H224.834V44.7865H224.778V44.8034H224.74V44.8225H224.685V44.8417H224.628V44.8608H224.59V44.8799H224.535V44.8991H224.478V44.9182H224.422V44.9374H224.348V44.9541H224.272V44.9733H224.199V44.9924H224.122V45.0116H224.068V45.0307H223.974V45.05H223.862V45.0691H223.732V45.0859H223.62V45.105H223.434V45.1242" fill="#D4C8F8"/>
<path d="M22.464 85.7908V85.7713H22.2027V85.7538H22.0907V85.7344H21.9601V85.7149H21.8293V85.6974H21.736V85.6779H21.6612V85.6584H21.5867V85.6408H21.5121V85.6213H21.4373V85.6018H21.3626V85.5843H21.3066V85.5647H21.2507V85.5452H21.1947V85.5277H21.1387V85.5082H21.1013V85.4887H21.0453V85.4711H20.9893V85.4516H20.9333V85.4323H20.896V85.4146H20.84V85.3952H20.8027V85.3757H20.7653V85.3582H20.728V85.3386H20.6907V85.3191H20.6533V85.3016H20.616V85.2821H20.5786V85.2626H20.5413V85.2431H20.5041V85.2255H20.4666V85.206H20.4293V85.1865H20.4106V85.169H20.3733V85.1495H20.336V85.1301H20.3173V85.1124H20.28V85.093H20.2427V85.0735H20.224V85.0558H20.1867V85.0365H20.1493V85.017H20.1306V84.9994H20.0933V84.9799H20.0746V84.9604H20.0373V84.9429H20.0186V84.9234H20.0001V84.9038H19.9626V84.8863H19.944V84.8668H19.9253V84.8473H19.888V84.8297H19.8693V84.8102H19.8507V84.7907H19.8132V84.7732H19.7947V84.7537H19.776V84.7343H19.7387V84.7168H19.72V84.6973H19.7013V84.6777H19.6826V84.6602H19.664V84.6407H19.6453V84.6212H19.6266V84.6036H19.5893V84.5841H19.5706V84.5646H19.5521V84.5471H19.5333V84.5276H19.5146V84.5081H19.496V84.4905H19.4773V84.471H19.4587V84.4515H19.44V84.434H19.4213V84.4146H19.384V84.3775H19.3652V84.358H19.3467V84.3385H19.328V84.321H19.3092V84.3015H19.2907V84.282H19.272V84.2644H19.2533V84.2449H19.2347V84.2254H19.216V84.2079H19.1973V84.1688H19.1786V84.1513H19.1601V84.1318H19.1413V84.1124H19.1226V84.0947H19.1041V84.0752H19.0853V84.0559H19.0666V84.0188H19.048V83.9993H19.0293V83.9818H19.0107V83.9427H18.992V83.9252H18.9733V83.9057H18.9547V83.8686H18.936V83.8491H18.9172V83.8296H18.8987V83.7926H18.88V83.7731H18.8612V83.7555H18.8427V83.7166H18.824V83.6971H18.8052V83.6601H18.7867V83.623H18.768V83.6035H18.7493V83.5665H18.7306V83.5275H18.7121V83.5099H18.6933V83.4709H18.6746V83.4534H18.6561V83.4145H18.6373V83.3774H18.6186V83.3579H18.6V83.3209H18.5813V83.2838H18.5626V83.2448H18.544V83.2077H18.5253V83.1707H18.5067V83.1141H18.488V83.0753H18.4695V83.0382H18.4507V83.0012H18.432V82.9621H18.4132V82.9251H18.3947V82.888H18.376V82.8315H18.3572V82.7749H18.3387V82.7185H18.32V82.6795H18.3013V82.6229H18.2826V82.5664H18.2641V82.5293H18.2453V82.4727H18.2266V82.3968H18.2081V82.3227H18.1893V82.2466H18.1706V82.1706H18.152V82.0947H18.1333V82.0205H18.1146V81.9074H18.096V81.7748H18.0773V81.6618H18.0587V81.4921H18.04V81.2095H18.0215V56.4544H18.04V56.1716H18.0587V56.0216H18.0773V55.889H18.096V55.776H18.1146V55.6434H18.1333V55.5693H18.152V55.5127H18.1706V55.4368H18.1893V55.3607H18.2081V55.2866H18.2266V55.2105H18.2453V55.154H18.2641V55.0976H18.2826V55.0605H18.3013V55.004H18.32V54.9474H18.3387V54.8908H18.3572V54.8518H18.376V54.7954H18.3947V54.7584H18.4132V54.7018H18.432V54.6647H18.4507V54.6257H18.4695V54.5887H18.488V54.5516H18.5067V54.5126H18.5253V54.4756H18.544V54.4385H18.5626V54.3996H18.5813V54.3626H18.6V54.3255H18.6186V54.2865H18.6373V54.269H18.6561V54.2299H18.6746V54.2104H18.6933V54.1734H18.7121V54.1363H18.7306V54.117H18.7493V54.0799H18.768V54.0409H18.7867V54.0234H18.8052V53.9843H18.824V53.9473H18.8427V53.9278H18.8612V53.9102H18.88V53.8712H18.8987V53.8537H18.9172V53.8342H18.936V53.7971H18.9547V53.7777H18.9733V53.7582H18.992V53.7212H19.0107V53.7017H19.0293V53.6841H19.048V53.6451H19.0666V53.6276H19.0853V53.6081H19.1041V53.5885H19.1226V53.571H19.1413V53.532H19.1601V53.5145H19.1786V53.4949H19.1973V53.4756H19.216V53.4579H19.2347V53.4385H19.2533V53.419H19.272V53.4015H19.2907V53.382H19.3092V53.3624H19.328V53.3254H19.3467V53.3059H19.3652V53.2884H19.384V53.2688H19.4027V53.2493H19.4213V53.2318H19.44V53.2123H19.4587V53.1928H19.496V53.1752H19.5146V53.1557H19.5333V53.1364H19.5521V53.1187H19.5706V53.0993H19.5893V53.0798H19.6081V53.0623H19.6266V53.0427H19.6453V53.0232H19.664V53.0057H19.7013V52.9862H19.72V52.9667H19.7387V52.9491H19.7572V52.9296H19.7947V52.9101H19.8132V52.8926H19.832V52.8731H19.8693V52.8536H19.888V52.836H19.9067V52.8165H19.944V52.7971H19.9626V52.7795H19.9813V52.7601H20.0186V52.7406H20.0373V52.723H20.0561V52.7035H20.0933V52.684H20.1121V52.6645H20.1493V52.647H20.1867V52.6275H20.2052V52.6079H20.2427V52.5904H20.2612V52.5709H20.2987V52.5514H20.336V52.5338H20.3547V52.5143H20.392V52.495H20.4293V52.4773H20.448V52.4579H20.4853V52.4384H20.5226V52.4209H20.5601V52.4014H20.5973V52.3818H20.6347V52.3643H20.6907V52.3448H20.728V52.3253H20.7653V52.3077H20.8027V52.2882H20.84V52.2687H20.8773V52.2512H20.9333V52.2317H20.9706V52.2122H21.0266V52.1946H21.0827V52.1751H21.1387V52.1557H21.176V52.1381H21.232V52.1186H21.288V52.0992H21.344V52.0817H21.4186V52.0621H21.4933V52.0426H21.568V52.0251H21.6427V52.0056H21.7173V51.9861H21.792V51.9685H21.9226V51.949H22.0532V51.9295H22.1653V51.912H22.3893V51.8925H119.83V51.912H120.054V51.9295H120.165V51.949H120.297V51.9685H120.409V51.9861H120.501V52.0056H120.577V52.0251H120.65V52.0426H120.725V52.0621H120.801V52.0817H120.874V52.0992H120.93V52.1186H120.986V52.1381H121.042V52.1557H121.081V52.1751H121.136V52.1946H121.192V52.2122H121.229V52.2317H121.285V52.2512H121.341V52.2687H121.38V52.2882H121.416V52.3077H121.453V52.3253H121.492V52.3448H121.528V52.3643H121.565V52.3818H121.604V52.4014H121.64V52.4209H121.696V52.4384H121.733V52.4579H121.752V52.4773H121.789V52.495H121.827V52.5143H121.845V52.5338H121.883V52.5514H121.92V52.5709H121.939V52.5904H121.976V52.6079H122.013V52.6275H122.032V52.647H122.069V52.6645H122.107V52.684H122.125V52.7035H122.163V52.723H122.181V52.7406H122.2V52.7601H122.237V52.7795H122.256V52.7971H122.275V52.8165H122.312V52.836H122.331V52.8536H122.349V52.8731H122.387V52.8926H122.405V52.9101H122.424V52.9296H122.461V52.9491H122.48V52.9667H122.499V52.9862H122.517V53.0057H122.536V53.0232H122.555V53.0427H122.592V53.0623H122.611V53.0798H122.629V53.0993H122.648V53.1187H122.667V53.1364H122.685V53.1557H122.704V53.1752H122.723V53.1928H122.742V53.2123H122.76V53.2318H122.798V53.2493H122.816V53.2688H122.835V53.2884H122.854V53.3254H122.872V53.3449H122.891V53.3624H122.91V53.382H122.928V53.4015H122.947V53.419H122.966V53.4385H122.984V53.4579H123.003V53.4756H123.022V53.4949H123.04V53.532H123.059V53.5515H123.078V53.571H123.096V53.5885H123.115V53.6081H123.134V53.6276H123.152V53.6646H123.171V53.6841H123.19V53.7017H123.208V53.7407H123.227V53.7582H123.246V53.7777H123.264V53.8146H123.283V53.8342H123.302V53.8537H123.32V53.8907H123.339V53.9102H123.358V53.9278H123.376V53.9668H123.395V53.9843H123.414V54.0234H123.431V54.0604H123.451V54.0799H123.47V54.117H123.487V54.154H123.507V54.1734H123.526V54.2104H123.543V54.2299H123.563V54.269H123.582V54.306H123.599V54.3255H123.619V54.3626H123.638V54.3996H123.655V54.4385H123.675V54.4756H123.694V54.5126H123.711V54.5692H123.731V54.6082H123.75V54.6452H123.767V54.6823H123.787V54.7213H123.806V54.7584H123.823V54.7954H123.843V54.8518H123.862V54.9084H123.879V54.9649H123.899V55.004H123.918V55.0605H123.935V55.1171H123.955V55.1735H123.974V55.2301H123.991V55.3042H124.011V55.3607H124.03V55.4368H124.047V55.5127H124.067V55.5868H124.086V55.6629H124.103V55.7954H124.122V55.928H124.142V56.0411H124.159V56.2282H124.178V81.4551H124.159V81.6248H124.142V81.7554H124.122V81.8879H124.103V82.001H124.086V82.077H124.067V82.153H124.047V82.2271H124.03V82.3032H124.011V82.3793H123.991V82.4532H123.974V82.5098H123.955V82.5664H123.935V82.6229H123.918V82.6619H123.899V82.7185H123.879V82.7749H123.862V82.812H123.843V82.8685H123.823V82.9251H123.806V82.9621H123.787V83.0012H123.767V83.0382H123.75V83.0753H123.731V83.1141H123.711V83.1512H123.694V83.1882H123.675V83.2273H123.655V83.2643H123.638V83.3209H123.619V83.3404H123.599V83.3774H123.582V83.4145H123.563V83.434H123.543V83.4709H123.526V83.5099H123.507V83.5275H123.487V83.5665H123.47V83.584H123.451V83.623H123.431V83.6601H123.414V83.6796H123.395V83.7166H123.376V83.7362H123.358V83.7731H123.339V83.7926H123.32V83.8121H123.302V83.8491H123.283V83.8686H123.264V83.8862H123.246V83.9252H123.227V83.9427H123.208V83.9623H123.19V83.9993H123.171V84.0188H123.152V84.0383H123.134V84.0752H123.115V84.0947H123.096V84.1124H123.078V84.1318H123.059V84.1513H123.04V84.1688H123.022V84.1884H123.003V84.2079H122.984V84.2449H122.966V84.2644H122.947V84.282H122.928V84.3015H122.91V84.321H122.891V84.3385H122.872V84.358H122.854V84.3775H122.835V84.3951H122.816V84.4146H122.798V84.434H122.779V84.4515H122.76V84.471H122.742V84.4905H122.723V84.5081H122.704V84.5276H122.685V84.5471H122.667V84.5646H122.648V84.5841H122.611V84.6036H122.592V84.6212H122.573V84.6407H122.555V84.6602H122.536V84.6777H122.517V84.6973H122.499V84.7168H122.48V84.7343H122.443V84.7537H122.424V84.7732H122.405V84.7907H122.368V84.8102H122.349V84.8297H122.331V84.8473H122.293V84.8668H122.275V84.8863H122.256V84.9038H122.219V84.9234H122.2V84.9429H122.163V84.9604H122.144V84.9799H122.125V84.9994H122.088V85.017H122.051V85.0365H122.032V85.0558H121.995V85.0735H121.976V85.093H121.939V85.1124H121.901V85.1301H121.883V85.1495H121.845V85.169H121.808V85.1865H121.789V85.206H121.752V85.2255H121.716V85.2431H121.677V85.2626H121.64V85.2821H121.604V85.3016H121.565V85.3191H121.528V85.3386H121.492V85.3582H121.436V85.3757H121.397V85.3952H121.36V85.4146H121.324V85.4323H121.268V85.4516H121.229V85.4711H121.173V85.4887H121.117V85.5082H121.061V85.5277H121.025V85.5452H120.969V85.5647H120.913V85.5843H120.857V85.6018H120.781V85.6213H120.706V85.6408H120.633V85.6584H120.557V85.6779H120.482V85.6974H120.37V85.7149H120.258V85.7344H120.129V85.7538H120.017V85.7713H119.754V85.7908" fill="#D4C8F8"/>
<path d="M135.184 85.7898V85.7716H134.943V85.7515H134.811V85.7333H134.681V85.7152H134.569V85.695H134.457V85.6769H134.382V85.6586H134.308V85.6385H134.252V85.6203H134.176V85.6022H134.102V85.582H134.028V85.5639H133.972V85.5458H133.934V85.5256H133.878V85.5075H133.822V85.4892H133.767V85.4691H133.729V85.4509H133.673V85.4328H133.617V85.4126H133.579V85.3945H133.543V85.3762H133.505V85.3562H133.467V85.3379H133.429V85.3178H133.393V85.2996H133.355V85.2815H133.299V85.2613H133.261V85.2432H133.225V85.2251H133.187V85.2049H133.169V85.1868H133.131V85.1685H133.094V85.1484H133.075V85.1302H133.038V85.1121H133V85.0919H132.982V85.0738H132.944V85.0555H132.926V85.0355H132.888V85.0172H132.852V84.9991H132.832V84.9789H132.796V84.9608H132.776V84.9427H132.74V84.9225H132.72V84.9044H132.702V84.8842H132.664V84.8661H132.646V84.8478H132.628V84.8278H132.59V84.8095H132.57V84.7914H132.552V84.7712H132.514V84.7531H132.496V84.7349H132.478V84.7148H132.44V84.6965H132.423V84.6784H132.402V84.6582H132.385V84.6401H132.367V84.622H132.347V84.6018H132.329V84.5837H132.311V84.5655H132.291V84.5454H132.273V84.5271H132.255V84.509H132.217V84.4888H132.199V84.4707H132.179V84.4525H132.161V84.4324H132.141V84.4142H132.123V84.3941H132.105V84.3758H132.085V84.3577H132.067V84.3375H132.049V84.3194H132.029V84.3013H132.011V84.263H131.993V84.2448H131.973V84.2247H131.955V84.2064H131.937V84.1883H131.917V84.1681H131.899V84.15H131.881V84.1318H131.861V84.1117H131.843V84.0935H131.825V84.0551H131.805V84.037H131.787V84.0189H131.769V83.9806H131.75V83.9604H131.731V83.9423H131.712V83.9038H131.694V83.8857H131.676V83.8676H131.656V83.8293H131.638V83.8111H131.62V83.791H131.6V83.7547H131.582V83.7344H131.564V83.7163H131.544V83.678H131.526V83.6417H131.508V83.6215H131.488V83.5853H131.47V83.547H131.452V83.5267H131.432V83.4904H131.414V83.4521H131.396V83.434H131.376V83.3957H131.358V83.3573H131.34V83.3391H131.32V83.3009H131.302V83.2646H131.282V83.2263H131.264V83.1879H131.246V83.1516H131.226V83.1133H131.208V83.0567H131.19V83.0185H131.17V82.9801H131.152V82.9439H131.134V82.9056H131.114V82.849H131.096V82.8107H131.079V82.7543H131.058V82.6977H131.041V82.6413H131.023V82.603H131.003V82.5465H130.985V82.49H130.967V82.4336H130.947V82.3589H130.929V82.2843H130.911V82.2076H130.891V82.133H130.873V82.0563H130.855V81.9636H130.835V81.8506H130.817V81.7175H130.797V81.5864H130.779V81.3605H130.761V56.3037H130.779V56.0779H130.797V55.9649H130.817V55.8317H130.835V55.7006H130.855V55.6059H130.873V55.5312H130.891V55.4748H130.911V55.3982H130.929V55.3235H130.947V55.2469H130.967V55.1722H130.985V55.1339H131.003V55.0775H131.023V55.0209H131.041V54.9645H131.058V54.9262H131.079V54.8696H131.096V54.8132H131.114V54.7769H131.134V54.7204H131.152V54.6821H131.17V54.6438H131.19V54.6075H131.208V54.5691H131.226V54.5308H131.246V54.4925H131.264V54.4562H131.282V54.4178H131.302V54.3795H131.32V54.3432H131.34V54.3049H131.358V54.2868H131.376V54.2484H131.396V54.2101H131.414V54.192H131.432V54.1537H131.452V54.1174H131.47V54.0971H131.488V54.0588H131.508V54.0225H131.526V54.0024H131.544V53.9661H131.564V53.9458H131.582V53.9096H131.6V53.8894H131.62V53.8712H131.638V53.833H131.656V53.8148H131.676V53.7967H131.694V53.7584H131.712V53.7401H131.731V53.72H131.75V53.6837H131.769V53.6635H131.787V53.6454H131.805V53.6071H131.825V53.5888H131.843V53.5687H131.861V53.5506H131.881V53.5324H131.899V53.5122H131.917V53.4941H131.937V53.476H131.955V53.4377H131.973V53.4194H131.993V53.3993H132.011V53.3811H132.029V53.363H132.049V53.3428H132.067V53.3247H132.085V53.3066H132.105V53.2864H132.123V53.2683H132.141V53.25H132.161V53.2298H132.179V53.2117H132.199V53.1936H132.217V53.1734H132.235V53.1553H132.255V53.1351H132.273V53.117H132.291V53.0987H132.329V53.0786H132.347V53.0604H132.367V53.0423H132.385V53.0221H132.402V53.004H132.423V52.9859H132.44V52.9657H132.458V52.9474H132.496V52.9293H132.514V52.9092H132.534V52.891H132.57V52.8729H132.59V52.8527H132.608V52.8346H132.646V52.8163H132.664V52.7963H132.684V52.778H132.72V52.7599H132.74V52.7397H132.758V52.7216H132.796V52.7014H132.814V52.6833H132.852V52.665H132.87V52.645H132.908V52.6269H132.944V52.6086H132.964V52.5884H133V52.5703H133.038V52.5522H133.058V52.532H133.094V52.5139H133.131V52.4956H133.149V52.4756H133.187V52.4573H133.225V52.4392H133.261V52.419H133.299V52.4009H133.337V52.3827H133.373V52.3626H133.411V52.3445H133.449V52.3262H133.485V52.306H133.523V52.2879H133.561V52.2677H133.599V52.2496H133.655V52.2315H133.711V52.2113H133.767V52.1932H133.802V52.175H133.858V52.1549H133.914V52.1366H133.972V52.1185H134.008V52.0983H134.084V52.0802H134.14V52.0621H134.214V52.0419H134.288V52.0237H134.364V52.0056H134.438V51.9853H134.531V51.9672H134.643V51.9491H134.773V51.9289H134.905V51.9108H135.11V51.8926H162.532V51.9108H162.737V51.9289H162.866V51.9491H162.978V51.9672H163.11V51.9853H163.204V52.0056H163.278V52.0237H163.352V52.0419H163.408V52.0621H163.484V52.0802H163.558V52.0983H163.633V52.1185H163.67V52.1366H163.726V52.1549H163.782V52.175H163.82V52.1932H163.876V52.2113H163.932V52.2315H163.988V52.2496H164.025V52.2677H164.063V52.2879H164.119V52.306H164.154V52.3262H164.193V52.3445H164.231V52.3626H164.266V52.3827H164.304V52.4009H164.342V52.419H164.378V52.4392H164.416V52.4573H164.454V52.4756H164.492V52.4956H164.51V52.5139H164.548V52.532H164.584V52.5522H164.604V52.5703H164.64V52.5884H164.678V52.6086H164.696V52.6269H164.734V52.645H164.752V52.665H164.79V52.6833H164.828V52.7014H164.846V52.7216H164.864V52.7397H164.902V52.7599H164.921V52.778H164.94V52.7963H164.977V52.8163H164.996V52.8346H165.014V52.8527H165.052V52.8729H165.07V52.891H165.089V52.9092H165.126V52.9293H165.145V52.9474H165.164V52.9657H165.201V52.9859H165.22V53.004H165.238V53.0221H165.257V53.0423H165.276V53.0604H165.292V53.0786H165.313V53.0987H165.332V53.117H165.351V53.1351H165.388V53.1553H165.407V53.1734H165.425V53.1936H165.442V53.2117H165.463V53.2298H165.481V53.25H165.498V53.2683H165.519V53.2864H165.536V53.3066H165.554V53.3247H165.575V53.3428H165.592V53.363H165.61V53.3811H165.631V53.3993H165.648V53.4377H165.666V53.4558H165.686V53.476H165.704V53.4941H165.722V53.5122H165.742V53.5324H165.76V53.5506H165.778V53.5687H165.798V53.5888H165.816V53.6273H165.836V53.6454H165.854V53.6635H165.872V53.7018H165.892V53.72H165.91V53.7401H165.928V53.7765H165.948V53.7967H165.966V53.8148H165.984V53.8531H166.004V53.8712H166.022V53.8894H166.04V53.9277H166.06V53.9458H166.078V53.9661H166.096V54.0024H166.116V54.0407H166.134V54.0588H166.152V54.0971H166.172V54.1355H166.19V54.1537H166.208V54.192H166.228V54.2303H166.246V54.2484H166.265V54.2868H166.284V54.3231H166.302V54.3432H166.321V54.3795H166.34V54.4178H166.358V54.4562H166.377V54.4925H166.396V54.5308H166.414V54.5872H166.433V54.6256H166.452V54.6639H166.47V54.7002H166.489V54.7385H166.508V54.7769H166.526V54.8334H166.545V54.8898H166.564V54.9262H166.582V54.9846H166.601V55.0411H166.62V55.0775H166.636V55.1339H166.657V55.1903H166.676V55.2669H166.695V55.3416H166.713V55.3982H166.73V55.4748H166.751V55.5493H166.769V55.624H166.786V55.737H166.807V55.8499H166.825V55.983H166.842V56.096H166.863V56.3603H166.88V81.3021H166.863V81.5662H166.842V81.6994H166.825V81.8124H166.807V81.9435H166.786V82.0563H166.769V82.1129H166.751V82.1895H166.73V82.2642H166.713V82.3408H166.695V82.4153H166.676V82.49H166.657V82.5283H166.636V82.5849H166.62V82.6413H166.601V82.6977H166.582V82.7362H166.564V82.7926H166.545V82.849H166.526V82.9056H166.508V82.9439H166.489V82.9801H166.47V83.0185H166.452V83.0567H166.433V83.0931H166.414V83.1314H166.396V83.1697H166.377V83.208H166.358V83.2444H166.34V83.2827H166.321V83.321H166.302V83.3573H166.284V83.3957H166.265V83.4137H166.246V83.4521H166.228V83.4904H166.208V83.5086H166.19V83.547H166.172V83.5853H166.152V83.6034H166.134V83.6417H166.116V83.678H166.096V83.6983H166.078V83.7344H166.06V83.7547H166.04V83.7728H166.022V83.8111H166.004V83.8293H165.984V83.8474H165.966V83.8857H165.948V83.9038H165.928V83.9241H165.91V83.9604H165.892V83.9806H165.872V83.9987H165.854V84.037H165.836V84.0551H165.816V84.0754H165.798V84.0935H165.778V84.1117H165.76V84.15H165.742V84.1681H165.722V84.1883H165.704V84.2064H165.686V84.2247H165.666V84.2448H165.648V84.263H165.631V84.2811H165.61V84.3013H165.592V84.3375H165.575V84.3577H165.554V84.3758H165.536V84.3941H165.519V84.4142H165.498V84.4324H165.481V84.4525H165.463V84.4707H165.425V84.4888H165.407V84.509H165.388V84.5271H165.369V84.5454H165.351V84.5655H165.332V84.5837H165.313V84.6018H165.292V84.622H165.276V84.6401H165.257V84.6582H165.238V84.6784H165.201V84.6965H165.182V84.7148H165.164V84.7349H165.145V84.7531H165.108V84.7712H165.089V84.7914H165.07V84.8095H165.033V84.8278H165.014V84.8478H164.996V84.8661H164.958V84.8842H164.94V84.9044H164.921V84.9225H164.884V84.9427H164.864V84.9608H164.846V84.9789H164.808V84.9991H164.79V85.0172H164.752V85.0355H164.716V85.0555H164.696V85.0738H164.66V85.0919H164.622V85.1121H164.604V85.1302H164.566V85.1484H164.528V85.1685H164.51V85.1868H164.472V85.2049H164.434V85.2251H164.416V85.2432H164.36V85.2613H164.322V85.2815H164.287V85.2996H164.248V85.3178H164.21V85.3379H164.175V85.3562H164.137V85.3762H164.098V85.3945H164.063V85.4126H164.025V85.4328H163.969V85.4509H163.913V85.4691H163.857V85.4892H163.82V85.5075H163.764V85.5256H163.708V85.5458H163.652V85.5639H163.614V85.582H163.54V85.6022H163.464V85.6203H163.39V85.6385H163.316V85.6586H163.24V85.6769H163.184V85.695H163.072V85.7152H162.943V85.7333H162.831V85.7515H162.7V85.7716H162.438V85.7898" fill="#D4C8F8"/>
<path d="M19.8502 102.082V102.063H19.7382V102.045H19.645V102.026H19.5702V102.007H19.4956V101.988H19.4396V101.969H19.4022V101.95H19.3462V101.932H19.2902V101.913H19.253V101.894H19.2156V101.875H19.1782V101.856H19.141V101.837H19.1036V101.818H19.0662V101.8H19.0476V101.781H19.0102V101.762H18.973V101.743H18.9542V101.724H18.917V101.705H18.8982V101.686H18.8796V101.668H18.8422V101.649H18.8236V101.63H18.805V101.611H18.7676V101.592H18.749V101.573H18.7302V101.554H18.7116V101.536H18.693V101.517H18.6742V101.498H18.6556V101.479H18.637V101.46H18.6182V101.441H18.5996V101.422H18.581V101.404H18.5622V101.385H18.5436V101.366H18.525V101.347H18.5062V101.309H18.4876V101.291H18.469V101.272H18.4502V101.234H18.4316V101.215H18.413V101.196H18.3942V101.159H18.3756V101.14H18.357V101.102H18.3382V101.064H18.3196V101.045H18.301V101.008H18.2822V100.97H18.2636V100.932H18.245V100.895H18.2262V100.857H18.2076V100.819H18.189V100.763H18.1702V100.725H18.1516V100.668H18.133V100.612H18.1142V100.536H18.0956V100.48H18.077V100.386H18.0582V100.272H18.0396V100.065H18.021V93.127H18.0396V92.9197H18.0582V92.8066H18.077V92.7123H18.0956V92.6369H18.1142V92.5803H18.133V92.5238H18.1516V92.4672H18.1702V92.4106H18.189V92.3729H18.2076V92.3351H18.2262V92.2975H18.245V92.2598H18.2636V92.222H18.2822V92.1844H18.301V92.1467H18.3196V92.1089H18.3382V92.0901H18.357V92.0523H18.3756V92.0147H18.3942V91.9958H18.413V91.977H18.4316V91.9392H18.4502V91.9204H18.469V91.9016H18.4876V91.8639H18.5062V91.845H18.525V91.8261H18.5436V91.8073H18.5622V91.7885H18.581V91.7695H18.5996V91.7507H18.6182V91.7319H18.637V91.713H18.6556V91.6942H18.6742V91.6754H18.693V91.6564H18.7116V91.6376H18.7302V91.6188H18.749V91.5999H18.7676V91.5811H18.7862V91.5622H18.8236V91.5433H18.8422V91.5245H18.861V91.5057H18.8982V91.4867H18.917V91.4679H18.9356V91.4491H18.973V91.4302H19.0102V91.4114H19.029V91.3926H19.0662V91.3736H19.1036V91.3548H19.1222V91.336H19.1782V91.3171H19.2156V91.2983H19.253V91.2794H19.2902V91.2605H19.3276V91.2417H19.3836V91.2229H19.4396V91.2039H19.477V91.1851H19.5516V91.1663H19.6262V91.1474H19.701V91.1286H19.8316V91.1098H20.0182V91.0908H122.181V91.1098H122.386V91.1286H122.498V91.1474H122.592V91.1663H122.666V91.1851H122.722V91.2039H122.778V91.2229H122.834V91.2417H122.89V91.2605H122.928V91.2794H122.965V91.2983H123.002V91.3171H123.04V91.336H123.077V91.3548H123.114V91.3736H123.152V91.3926H123.17V91.4114H123.208V91.4302H123.245V91.4491H123.264V91.4679H123.301V91.4867H123.32V91.5057H123.338V91.5245H123.376V91.5433H123.394V91.5622H123.413V91.5811H123.45V91.5999H123.469V91.6188H123.488V91.6376H123.506V91.6564H123.525V91.6754H123.544V91.6942H123.562V91.713H123.581V91.7319H123.6V91.7507H123.618V91.7695H123.637V91.7885H123.656V91.8073H123.674V91.8261H123.693V91.845H123.712V91.8827H123.73V91.9016H123.749V91.9204H123.768V91.9582H123.786V91.977H123.805V91.9958H123.824V92.0335H123.842V92.0523H123.861V92.0901H123.88V92.1278H123.898V92.1467H123.917V92.1844H123.936V92.222H123.954V92.2598H123.973V92.2975H123.992V92.3351H124.01V92.3729H124.029V92.4295H124.048V92.486H124.066V92.5238H124.085V92.5803H124.104V92.6557H124.122V92.7311H124.141V92.8254H124.16V92.9385H124.178V100.235H124.16V100.367H124.141V100.461H124.122V100.536H124.104V100.612H124.085V100.649H124.066V100.706H124.048V100.763H124.029V100.819H124.01V100.857H123.992V100.895H123.973V100.932H123.954V100.97H123.936V101.008H123.917V101.027H123.898V101.064H123.88V101.102H123.861V101.121H123.842V101.159H123.824V101.177H123.805V101.215H123.786V101.234H123.768V101.253H123.749V101.291H123.73V101.309H123.712V101.328H123.693V101.347H123.674V101.385H123.656V101.404H123.637V101.422H123.618V101.441H123.6V101.46H123.581V101.479H123.562V101.498H123.544V101.517H123.525V101.536H123.506V101.554H123.488V101.573H123.45V101.592H123.432V101.611H123.413V101.63H123.394V101.649H123.357V101.668H123.338V101.686H123.32V101.705H123.282V101.724H123.264V101.743H123.226V101.762H123.208V101.781H123.17V101.8H123.133V101.818H123.114V101.837H123.077V101.856H123.04V101.875H123.002V101.894H122.965V101.913H122.928V101.932H122.872V101.95H122.816V101.969H122.778V101.988H122.722V102.007H122.648V102.026H122.573V102.045H122.48V102.063H122.368V102.082" fill="#D4C8F8"/>
<path d="M122.807 109.389H17.8545V111.678H122.807V109.389Z" fill="#9577EE"/>
<path d="M122.807 117.4H17.8545V119.688H122.807V117.4Z" fill="#9577EE"/>
<path d="M70.007 125.409H17.5317V127.696H70.007V125.409Z" fill="#9577EE"/>
<path d="M225.589 54.5386H178.592V56.8254H225.589V54.5386Z" fill="#9577EE"/>
<path d="M225.589 62.5455H178.592V64.8348H225.589V62.5455Z" fill="#9577EE"/>
<path d="M225.582 70.5564H178.476V72.8434H225.582V70.5564Z" fill="#9577EE"/>
<path d="M209.925 78.5649H178.455V80.8524H209.925V78.5649Z" fill="#9577EE"/>
</svg>
